<svg width="101" height="100" viewBox="0 0 101 100" fill="none" xmlns="http://www.w3.org/2000/svg">
<g clip-path="url(#clip0_460_48)">
<rect x="0.5" width="100" height="100" rx="50" fill="#007AFF" fill-opacity="0.15"/>
<path fill-rule="evenodd" clip-rule="evenodd" d="M56.4165 37.1875H59.3748V43.1042H67.8327C68.9483 43.1042 70.0229 43.5244 70.8427 44.281L78.6555 51.493C79.5656 52.333 80.0832 53.5151 80.0832 54.7536V66.7708H71.2082V63.8125H77.1248V54.7536C77.1248 54.3408 76.9524 53.9468 76.649 53.6667L68.836 46.4548C68.5628 46.2026 68.2046 46.0625 67.8327 46.0625H59.3748V63.8125H62.3332V66.7708H57.1561V65.2917H56.4165V37.1875Z" fill="#0D45ED"/>
<path fill-rule="evenodd" clip-rule="evenodd" d="M32.7502 68.25C34.384 68.25 35.7085 66.9256 35.7085 65.2917C35.7085 63.6578 34.384 62.3333 32.7502 62.3333C31.1163 62.3333 29.7918 63.6578 29.7918 65.2917C29.7918 66.9256 31.1163 68.25 32.7502 68.25ZM32.7502 71.2083C36.0178 71.2083 38.6668 68.5593 38.6668 65.2917C38.6668 62.024 36.0178 59.375 32.7502 59.375C29.4825 59.375 26.8335 62.024 26.8335 65.2917C26.8335 68.5593 29.4825 71.2083 32.7502 71.2083Z" fill="#0D45ED"/>
<path fill-rule="evenodd" clip-rule="evenodd" d="M66.7707 68.25C68.4046 68.25 69.729 66.9256 69.729 65.2917C69.729 63.6578 68.4046 62.3333 66.7707 62.3333C65.1368 62.3333 63.8123 63.6578 63.8123 65.2917C63.8123 66.9256 65.1368 68.25 66.7707 68.25ZM66.7707 71.2083C70.0383 71.2083 72.6873 68.5593 72.6873 65.2917C72.6873 62.024 70.0383 59.375 66.7707 59.375C63.503 59.375 60.854 62.024 60.854 65.2917C60.854 68.5593 63.503 71.2083 66.7707 71.2083Z" fill="#0D45ED"/>
<path fill-rule="evenodd" clip-rule="evenodd" d="M78.6043 56.4167H57.896V53.4583H78.6043V56.4167Z" fill="#0D45ED"/>
<path fill-rule="evenodd" clip-rule="evenodd" d="M63.8127 38.6667C64.6296 38.6667 65.2918 39.3289 65.2918 40.1458V44.5833H62.3335V40.1458C62.3335 39.3289 62.9957 38.6667 63.8127 38.6667Z" fill="#0D45ED"/>
<path fill-rule="evenodd" clip-rule="evenodd" d="M23.8748 35.7083H56.4165C58.0504 35.7083 59.3748 37.0328 59.3748 38.6667V66.7708H38.4801C38.6017 66.2981 38.6665 65.8024 38.6665 65.2917C38.6665 62.024 36.0175 59.375 32.7498 59.375C29.4822 59.375 26.8332 62.024 26.8332 65.2917C26.8332 65.8024 26.8979 66.2981 27.0196 66.7708H20.9165V38.6667C20.9165 37.0328 22.241 35.7083 23.8748 35.7083ZM38.6665 47.5417V43.1042H41.6248V47.5417H46.0623V50.5H41.6248V54.9375H38.6665V50.5H34.229V47.5417H38.6665Z" fill="#0D45ED"/>
<path fill-rule="evenodd" clip-rule="evenodd" d="M35.7082 40.1458H44.5832V44.5833H49.0207V53.4583H44.5832V57.8958H37.6574C39.6584 59.2262 41.0885 61.347 41.5021 63.8125H56.4165V38.6667H23.8748V63.8125H23.9975C24.7018 59.6151 28.3523 56.4167 32.7498 56.4167C33.7872 56.4167 34.7828 56.5946 35.7082 56.9217V53.4583H31.2707V44.5833H35.7082V40.1458ZM27.0196 63.8125C26.8979 64.2852 26.8332 64.7809 26.8332 65.2917C26.8332 65.8024 26.8979 66.2981 27.0196 66.7708H20.9165V38.6667C20.9165 37.0328 22.241 35.7083 23.8748 35.7083H56.4165C58.0504 35.7083 59.3748 37.0328 59.3748 38.6667V66.7708H38.4801C38.6017 66.2981 38.6665 65.8024 38.6665 65.2917C38.6665 64.7809 38.6017 64.2852 38.4801 63.8125C37.8232 61.2606 35.5067 59.375 32.7498 59.375C29.993 59.375 27.6764 61.2606 27.0196 63.8125ZM38.6665 47.5417H34.229V50.5H38.6665V54.9375H41.6248V50.5H46.0623V47.5417H41.6248V43.1042H38.6665V47.5417Z" fill="#0D45ED"/>
<path fill-rule="evenodd" clip-rule="evenodd" d="M66.7707 44.5833H60.854V41.625H66.7707V44.5833Z" fill="#0D45ED"/>
<path fill-rule="evenodd" clip-rule="evenodd" d="M63.8127 34.9688C62.9957 34.9688 62.3335 34.3065 62.3335 33.4896V31.2708C62.3335 30.4539 62.9957 29.7917 63.8127 29.7917C64.6296 29.7917 65.2918 30.4539 65.2918 31.2708V33.4896C65.2918 34.3065 64.6296 34.9688 63.8127 34.9688Z" fill="#0D45ED"/>
<path fill-rule="evenodd" clip-rule="evenodd" d="M68.9897 40.1458C68.9897 39.3289 69.652 38.6667 70.4689 38.6667H72.6877C73.5046 38.6667 74.1668 39.3289 74.1668 40.1458C74.1668 40.9628 73.5046 41.625 72.6877 41.625H70.4689C69.652 41.625 68.9897 40.9628 68.9897 40.1458Z" fill="#0D45ED"/>
<path fill-rule="evenodd" clip-rule="evenodd" d="M67.8934 35.962C67.3447 35.3566 67.3909 34.4212 67.9962 33.8727L69.3484 32.6473C69.9538 32.0987 70.8893 32.1447 71.4377 32.7501C71.9864 33.3554 71.9402 34.2908 71.3349 34.8395L69.9827 36.0648C69.3773 36.6134 68.4418 36.5673 67.8934 35.962Z" fill="#0D45ED"/>
<g clip-path="url(#clip1_460_48)">
<path d="M50.5669 -11.3118C84.3454 -11.3118 111.953 16.2408 111.953 50.1933C111.953 84.0374 84.4536 111.698 50.5669 111.698C16.6801 111.698 -10.8191 84.1459 -10.8191 50.1933C-10.8191 16.2408 16.6801 -11.3118 50.5669 -11.3118ZM50.5669 -12.3965C16.1388 -12.3965 -11.7935 15.5899 -11.7935 50.0849C-11.7935 84.5798 16.1388 112.566 50.5669 112.566C84.995 112.566 112.927 84.5798 112.927 50.0849C112.927 15.5899 84.995 -12.3965 50.5669 -12.3965Z" fill="#082D9B"/>
<path d="M50.5669 -11.3118C84.3454 -11.3118 111.953 16.2408 111.953 50.1933C111.953 84.0374 84.4536 111.698 50.5669 111.698C16.6801 111.698 -10.8191 84.1459 -10.8191 50.1933C-10.8191 16.2408 16.6801 -11.3118 50.5669 -11.3118ZM50.5669 -12.3965C16.1388 -12.3965 -11.7935 15.5899 -11.7935 50.0849C-11.7935 84.5798 16.1388 112.566 50.5669 112.566C84.995 112.566 112.927 84.5798 112.927 50.0849C112.927 15.5899 84.995 -12.3965 50.5669 -12.3965Z" fill="black" fill-opacity="0.2"/>
<path d="M50.5669 5.06801C75.3595 5.06801 95.4967 25.2443 95.4967 50.085C95.4967 74.9256 75.3595 95.1017 50.5669 95.1017C25.7744 95.1017 5.6372 74.9256 5.6372 50.085C5.6372 25.2443 25.6661 5.06801 50.5669 5.06801ZM50.5669 3.98327C25.1248 3.98327 4.44629 24.7019 4.44629 50.1934C4.44629 75.685 25.1248 96.4034 50.5669 96.4034C76.0091 96.4034 96.6876 75.685 96.6876 50.1934C96.5793 24.7019 75.9008 3.98327 50.5669 3.98327Z" fill="#082D9B"/>
<path d="M50.5 4.10329C75.4965 4.10329 95.7993 24.6245 95.7993 49.8898C95.7993 75.1551 75.4965 95.6761 50.5 95.6761C25.5035 95.6761 5.2007 75.1551 5.2007 49.8898C5.2007 24.6245 25.3944 4.10329 50.5 4.10329ZM50.5 3C24.8486 3 4 24.0728 4 50.0001C4 75.9274 24.8486 97 50.5 97C76.1514 97 97 75.9274 97 50.0001C96.8908 24.0728 76.0423 3 50.5 3Z" fill="#082D9B"/>
<path d="M50.5669 7.45424C74.1686 7.45424 93.2231 26.5458 93.2231 50.1932H115.634C115.634 14.1797 86.5107 -15 50.5669 -15C14.6231 -15 -14.5 14.1797 -14.5 50.1932H7.91074C7.91074 26.5458 26.9653 7.45424 50.5669 7.45424Z" fill="#082D9B"/>
<path d="M50.5669 7.45424C74.1686 7.45424 93.2231 26.5458 93.2231 50.1932H115.634C115.634 14.1797 86.5107 -15 50.5669 -15C14.6231 -15 -14.5 14.1797 -14.5 50.1932H7.91074C7.91074 26.5458 26.9653 7.45424 50.5669 7.45424Z" fill="#082D9B"/>
</g>
</g>
<defs>
<clipPath id="clip0_460_48">
<rect x="0.5" width="100" height="100" rx="50" fill="white"/>
</clipPath>
<clipPath id="clip1_460_48">
<rect width="131" height="128" fill="white" transform="translate(-14.5 -15)"/>
</clipPath>
</defs>
</svg>
