<svg width="101" height="100" viewBox="0 0 101 100" fill="none" xmlns="http://www.w3.org/2000/svg">
<g clip-path="url(#clip0_460_460)">
<rect x="0.5" width="100" height="100" rx="50" fill="#007AFF" fill-opacity="0.15"/>
<path fill-rule="evenodd" clip-rule="evenodd" d="M68.25 38.6667C71.5176 38.6667 74.1667 36.0176 74.1667 32.75C74.1667 29.4823 71.5176 26.8333 68.25 26.8333C64.9824 26.8333 62.3333 29.4823 62.3333 32.75C62.3333 36.0176 64.9824 38.6667 68.25 38.6667ZM68.25 41.625C73.1515 41.625 77.125 37.6515 77.125 32.75C77.125 27.8485 73.1515 23.875 68.25 23.875C63.3485 23.875 59.375 27.8485 59.375 32.75C59.375 37.6515 63.3485 41.625 68.25 41.625ZM41.7671 37.3431C39.5897 35.1644 36.058 35.1633 33.8789 37.3404L32.8374 38.381C30.8565 37.8181 28.6402 38.3219 27.0804 39.8922C24.7788 42.2094 24.7788 45.9702 27.0804 48.2875L28.3125 49.5279V65.2917H23.875V68.25H28.3125H28.3872C27.4283 69.1897 26.8333 70.4994 26.8333 71.9479C26.8333 74.8071 29.1512 77.125 32.0104 77.125C34.8696 77.125 37.1875 74.8071 37.1875 71.9479C37.1875 70.4994 36.5926 69.1897 35.6336 68.25H65.3664C64.4074 69.1897 63.8125 70.4994 63.8125 71.9479C63.8125 74.8071 66.1304 77.125 68.9896 77.125C71.8488 77.125 74.1667 74.8071 74.1667 71.9479C74.1667 70.4994 73.5717 69.1897 72.6128 68.25H77.125V65.2917H71.2083V60.8537H71.3063C74.5199 60.8537 77.125 58.2269 77.125 54.9863C77.125 51.7459 74.5199 49.1191 71.3063 49.1191H44.746C44.6255 49.1191 44.5097 49.0707 44.4243 48.9847L43.8824 48.4392L44.4273 47.8947C46.6065 45.7174 46.6077 42.186 44.4301 40.0072L41.7671 37.3431ZM41.7976 46.3403L42.3363 45.802C43.3596 44.7796 43.3602 43.1216 42.3377 42.0986L39.6749 39.4345C38.6522 38.4112 36.9933 38.4106 35.9698 39.4332L35.4514 39.9512L41.7976 46.3403ZM68.25 60.8537V65.2917H31.2708V52.5062L39.0737 60.3619C39.3866 60.6768 39.8105 60.8537 40.2526 60.8537H68.25ZM69.7292 29.7917C69.7292 28.9748 69.0669 28.3125 68.25 28.3125C67.4331 28.3125 66.7708 28.9748 66.7708 29.7917V33.1979L68.4984 35.7892C68.9516 36.4689 69.87 36.6526 70.5497 36.1996C71.2293 35.7463 71.413 34.8279 70.96 34.1483L69.7292 32.3021V29.7917Z" fill="#0D45ED"/>
<g clip-path="url(#clip1_460_460)">
<path d="M50.5669 -11.3118C84.3454 -11.3118 111.953 16.2408 111.953 50.1933C111.953 84.0374 84.4536 111.698 50.5669 111.698C16.6801 111.698 -10.8191 84.1459 -10.8191 50.1933C-10.8191 16.2408 16.6801 -11.3118 50.5669 -11.3118ZM50.5669 -12.3965C16.1388 -12.3965 -11.7935 15.5899 -11.7935 50.0849C-11.7935 84.5798 16.1388 112.566 50.5669 112.566C84.995 112.566 112.927 84.5798 112.927 50.0849C112.927 15.5899 84.995 -12.3965 50.5669 -12.3965Z" fill="#082D9B"/>
<path d="M50.5669 -11.3118C84.3454 -11.3118 111.953 16.2408 111.953 50.1933C111.953 84.0374 84.4536 111.698 50.5669 111.698C16.6801 111.698 -10.8191 84.1459 -10.8191 50.1933C-10.8191 16.2408 16.6801 -11.3118 50.5669 -11.3118ZM50.5669 -12.3965C16.1388 -12.3965 -11.7935 15.5899 -11.7935 50.0849C-11.7935 84.5798 16.1388 112.566 50.5669 112.566C84.995 112.566 112.927 84.5798 112.927 50.0849C112.927 15.5899 84.995 -12.3965 50.5669 -12.3965Z" fill="black" fill-opacity="0.2"/>
<path d="M50.5669 5.06802C75.3595 5.06802 95.4967 25.2443 95.4967 50.085C95.4967 74.9257 75.3595 95.1017 50.5669 95.1017C25.7744 95.1017 5.6372 74.9257 5.6372 50.085C5.6372 25.2443 25.6661 5.06802 50.5669 5.06802ZM50.5669 3.98328C25.1248 3.98328 4.44629 24.7019 4.44629 50.1934C4.44629 75.685 25.1248 96.4034 50.5669 96.4034C76.0091 96.4034 96.6876 75.685 96.6876 50.1934C96.5793 24.7019 75.9008 3.98328 50.5669 3.98328Z" fill="#082D9B"/>
<path d="M50.5 4.10329C75.4965 4.10329 95.7993 24.6245 95.7993 49.8898C95.7993 75.1551 75.4965 95.6761 50.5 95.6761C25.5035 95.6761 5.2007 75.1551 5.2007 49.8898C5.2007 24.6245 25.3944 4.10329 50.5 4.10329ZM50.5 3C24.8486 3 4 24.0728 4 50.0001C4 75.9274 24.8486 97 50.5 97C76.1514 97 97 75.9274 97 50.0001C96.8908 24.0728 76.0423 3 50.5 3Z" fill="#082D9B"/>
<path d="M50.5669 7.45424C74.1686 7.45424 93.2231 26.5458 93.2231 50.1932H115.634C115.634 14.1797 86.5107 -15 50.5669 -15C14.6231 -15 -14.5 14.1797 -14.5 50.1932H7.91074C7.91074 26.5458 26.9653 7.45424 50.5669 7.45424Z" fill="#082D9B"/>
<path d="M50.5669 7.45424C74.1686 7.45424 93.2231 26.5458 93.2231 50.1932H115.634C115.634 14.1797 86.5107 -15 50.5669 -15C14.6231 -15 -14.5 14.1797 -14.5 50.1932H7.91074C7.91074 26.5458 26.9653 7.45424 50.5669 7.45424Z" fill="#082D9B"/>
</g>
</g>
<defs>
<clipPath id="clip0_460_460">
<rect x="0.5" width="100" height="100" rx="50" fill="white"/>
</clipPath>
<clipPath id="clip1_460_460">
<rect width="131" height="128" fill="white" transform="translate(-14.5 -15)"/>
</clipPath>
</defs>
</svg>
