<svg width="101" height="100" viewBox="0 0 101 100" fill="none" xmlns="http://www.w3.org/2000/svg">
<g clip-path="url(#clip0_460_408)">
<rect x="0.5" width="100" height="100" rx="50" fill="#007AFF" fill-opacity="0.15"/>
<path fill-rule="evenodd" clip-rule="evenodd" d="M23.875 28.3125C23.875 25.8617 25.8617 23.875 28.3125 23.875H72.6875C75.1383 23.875 77.125 25.8617 77.125 28.3125V72.6875C77.125 75.1383 75.1383 77.125 72.6875 77.125H28.3125C25.8617 77.125 23.875 75.1383 23.875 72.6875V28.3125ZM41.1712 44.11C42.8881 41.3988 45.8646 38.6667 50.3028 38.6667C51.6566 38.6667 52.8375 39.5855 53.1703 40.8977L54.8791 47.6353L58.4635 48.3363C60.067 48.6497 61.1127 50.2039 60.7991 51.8073C60.4857 53.4107 58.9315 54.4565 57.3281 54.1429L51.9045 53.0825C50.7816 52.8628 49.886 52.0154 49.6047 50.9063L49.2862 49.6508C48.298 52.2633 47.5417 55.3844 47.5417 58.6354V68.25C47.5417 69.8839 46.2172 71.2083 44.5833 71.2083C42.9494 71.2083 41.625 69.8839 41.625 68.25V59.4046L41.524 59.22C41.2358 58.6918 40.8484 57.9656 40.4581 57.1849C40.0722 56.4131 39.6616 55.5445 39.3404 54.742C39.1802 54.3414 39.026 53.9166 38.9076 53.5026C38.8022 53.1337 38.6667 52.5775 38.6667 51.9792C38.6667 49.8928 39.4925 46.761 41.1712 44.11ZM53.6752 57.8904C53.6752 55.8485 55.3304 54.1932 57.3724 54.1932H57.4979C59.6092 54.1932 61.3207 55.9047 61.3207 58.0159V69.8117C61.3207 70.6286 60.6585 71.2909 59.8415 71.2909C59.0246 71.2909 58.3624 70.6286 58.3624 69.8117V58.0159C58.3624 57.5386 57.9754 57.1515 57.4979 57.1515H57.3724C56.9643 57.1515 56.6335 57.4823 56.6335 57.8904H53.6752ZM58.6354 41.625C61.4946 41.625 63.8125 39.3071 63.8125 36.4479C63.8125 33.5887 61.4946 31.2708 58.6354 31.2708C55.7762 31.2708 53.4583 33.5887 53.4583 36.4479C53.4583 39.3071 55.7762 41.625 58.6354 41.625Z" fill="#0D45ED"/>
<g clip-path="url(#clip1_460_408)">
<path d="M50.5669 -11.3118C84.3454 -11.3118 111.953 16.2408 111.953 50.1933C111.953 84.0374 84.4536 111.698 50.5669 111.698C16.6801 111.698 -10.8191 84.1459 -10.8191 50.1933C-10.8191 16.2408 16.6801 -11.3118 50.5669 -11.3118ZM50.5669 -12.3965C16.1388 -12.3965 -11.7935 15.5899 -11.7935 50.0849C-11.7935 84.5798 16.1388 112.566 50.5669 112.566C84.995 112.566 112.927 84.5798 112.927 50.0849C112.927 15.5899 84.995 -12.3965 50.5669 -12.3965Z" fill="#082D9B"/>
<path d="M50.5669 -11.3118C84.3454 -11.3118 111.953 16.2408 111.953 50.1933C111.953 84.0374 84.4536 111.698 50.5669 111.698C16.6801 111.698 -10.8191 84.1459 -10.8191 50.1933C-10.8191 16.2408 16.6801 -11.3118 50.5669 -11.3118ZM50.5669 -12.3965C16.1388 -12.3965 -11.7935 15.5899 -11.7935 50.0849C-11.7935 84.5798 16.1388 112.566 50.5669 112.566C84.995 112.566 112.927 84.5798 112.927 50.0849C112.927 15.5899 84.995 -12.3965 50.5669 -12.3965Z" fill="black" fill-opacity="0.2"/>
<path d="M50.5669 5.06801C75.3595 5.06801 95.4967 25.2443 95.4967 50.085C95.4967 74.9256 75.3595 95.1017 50.5669 95.1017C25.7744 95.1017 5.6372 74.9256 5.6372 50.085C5.6372 25.2443 25.6661 5.06801 50.5669 5.06801ZM50.5669 3.98327C25.1248 3.98327 4.44629 24.7019 4.44629 50.1934C4.44629 75.685 25.1248 96.4034 50.5669 96.4034C76.0091 96.4034 96.6876 75.685 96.6876 50.1934C96.5793 24.7019 75.9008 3.98327 50.5669 3.98327Z" fill="#082D9B"/>
<path d="M50.5 4.10329C75.4965 4.10329 95.7993 24.6245 95.7993 49.8898C95.7993 75.1551 75.4965 95.6761 50.5 95.6761C25.5035 95.6761 5.2007 75.1551 5.2007 49.8898C5.2007 24.6245 25.3944 4.10329 50.5 4.10329ZM50.5 3C24.8486 3 4 24.0728 4 50.0001C4 75.9274 24.8486 97 50.5 97C76.1514 97 97 75.9274 97 50.0001C96.8908 24.0728 76.0423 3 50.5 3Z" fill="#082D9B"/>
<path d="M50.5669 7.45424C74.1686 7.45424 93.2231 26.5458 93.2231 50.1932H115.634C115.634 14.1797 86.5107 -15 50.5669 -15C14.6231 -15 -14.5 14.1797 -14.5 50.1932H7.91074C7.91074 26.5458 26.9653 7.45424 50.5669 7.45424Z" fill="#082D9B"/>
<path d="M50.5669 7.45424C74.1686 7.45424 93.2231 26.5458 93.2231 50.1932H115.634C115.634 14.1797 86.5107 -15 50.5669 -15C14.6231 -15 -14.5 14.1797 -14.5 50.1932H7.91074C7.91074 26.5458 26.9653 7.45424 50.5669 7.45424Z" fill="#082D9B"/>
</g>
</g>
<defs>
<clipPath id="clip0_460_408">
<rect x="0.5" width="100" height="100" rx="50" fill="white"/>
</clipPath>
<clipPath id="clip1_460_408">
<rect width="131" height="128" fill="white" transform="translate(-14.5 -15)"/>
</clipPath>
</defs>
</svg>
