<svg width="101" height="100" viewBox="0 0 101 100" fill="none" xmlns="http://www.w3.org/2000/svg">
<g clip-path="url(#clip0_460_487)">
<rect x="0.5" width="100" height="100" rx="50" fill="#007AFF" fill-opacity="0.15"/>
<path fill-rule="evenodd" clip-rule="evenodd" d="M28.3125 23.875C25.8617 23.875 23.875 25.8617 23.875 28.3125V72.6875C23.875 75.1383 25.8617 77.125 28.3125 77.125H72.6875C75.1383 77.125 77.125 75.1383 77.125 72.6875V28.3125C77.125 25.8617 75.1383 23.875 72.6875 23.875H28.3125ZM34.2292 34.2292C33.4122 34.2292 32.75 34.8914 32.75 35.7083V59.3146C32.75 60.1316 33.4122 60.7938 34.2292 60.7938H49.0208V63.9634H42.3076V66.9217H58.6924V63.9634H51.9792V60.7938H66.7708C67.5878 60.7938 68.25 60.1316 68.25 59.3146V35.7083C68.25 34.8914 67.5878 34.2292 66.7708 34.2292H34.2292Z" fill="#0D45ED"/>
<path d="M35.481 47.0669H43.8498L48.8835 38.214L52.029 49.1046L55.8781 44.209H64.0336C64.8542 44.209 65.5194 44.867 65.5194 45.6788C65.5194 46.4904 64.8542 47.1485 64.0336 47.1485H57.3315L50.7803 55.4809L47.9826 45.7945L45.5877 50.0064H35.481V47.0669Z" fill="#0D45ED"/>
<g clip-path="url(#clip1_460_487)">
<path d="M50.5669 -11.3118C84.3454 -11.3118 111.953 16.2408 111.953 50.1933C111.953 84.0374 84.4536 111.698 50.5669 111.698C16.6801 111.698 -10.8191 84.1459 -10.8191 50.1933C-10.8191 16.2408 16.6801 -11.3118 50.5669 -11.3118ZM50.5669 -12.3965C16.1388 -12.3965 -11.7935 15.5899 -11.7935 50.0849C-11.7935 84.5798 16.1388 112.566 50.5669 112.566C84.995 112.566 112.927 84.5798 112.927 50.0849C112.927 15.5899 84.995 -12.3965 50.5669 -12.3965Z" fill="#082D9B"/>
<path d="M50.5669 -11.3118C84.3454 -11.3118 111.953 16.2408 111.953 50.1933C111.953 84.0374 84.4536 111.698 50.5669 111.698C16.6801 111.698 -10.8191 84.1459 -10.8191 50.1933C-10.8191 16.2408 16.6801 -11.3118 50.5669 -11.3118ZM50.5669 -12.3965C16.1388 -12.3965 -11.7935 15.5899 -11.7935 50.0849C-11.7935 84.5798 16.1388 112.566 50.5669 112.566C84.995 112.566 112.927 84.5798 112.927 50.0849C112.927 15.5899 84.995 -12.3965 50.5669 -12.3965Z" fill="black" fill-opacity="0.2"/>
<path d="M50.5669 5.06801C75.3595 5.06801 95.4967 25.2443 95.4967 50.085C95.4967 74.9256 75.3595 95.1017 50.5669 95.1017C25.7744 95.1017 5.6372 74.9256 5.6372 50.085C5.6372 25.2443 25.6661 5.06801 50.5669 5.06801ZM50.5669 3.98327C25.1248 3.98327 4.44629 24.7019 4.44629 50.1934C4.44629 75.685 25.1248 96.4034 50.5669 96.4034C76.0091 96.4034 96.6876 75.685 96.6876 50.1934C96.5793 24.7019 75.9008 3.98327 50.5669 3.98327Z" fill="#082D9B"/>
<path d="M50.5 4.10329C75.4965 4.10329 95.7993 24.6245 95.7993 49.8898C95.7993 75.1551 75.4965 95.6761 50.5 95.6761C25.5035 95.6761 5.2007 75.1551 5.2007 49.8898C5.2007 24.6245 25.3944 4.10329 50.5 4.10329ZM50.5 3C24.8486 3 4 24.0728 4 50.0001C4 75.9274 24.8486 97 50.5 97C76.1514 97 97 75.9274 97 50.0001C96.8908 24.0728 76.0423 3 50.5 3Z" fill="#082D9B"/>
<path d="M50.5669 7.45424C74.1686 7.45424 93.2231 26.5458 93.2231 50.1932H115.634C115.634 14.1797 86.5107 -15 50.5669 -15C14.6231 -15 -14.5 14.1797 -14.5 50.1932H7.91074C7.91074 26.5458 26.9653 7.45424 50.5669 7.45424Z" fill="#082D9B"/>
<path d="M50.5669 7.45424C74.1686 7.45424 93.2231 26.5458 93.2231 50.1932H115.634C115.634 14.1797 86.5107 -15 50.5669 -15C14.6231 -15 -14.5 14.1797 -14.5 50.1932H7.91074C7.91074 26.5458 26.9653 7.45424 50.5669 7.45424Z" fill="#082D9B"/>
</g>
</g>
<defs>
<clipPath id="clip0_460_487">
<rect x="0.5" width="100" height="100" rx="50" fill="white"/>
</clipPath>
<clipPath id="clip1_460_487">
<rect width="131" height="128" fill="white" transform="translate(-14.5 -15)"/>
</clipPath>
</defs>
</svg>
