<svg width="101" height="100" viewBox="0 0 101 100" fill="none" xmlns="http://www.w3.org/2000/svg">
<g clip-path="url(#clip0_460_626)">
<rect x="0.5" width="100" height="100" rx="50" fill="#007AFF" fill-opacity="0.15"/>
<path fill-rule="evenodd" clip-rule="evenodd" d="M50.5002 23.875C46.3501 23.875 41.2739 25.3929 38.2762 26.4357C36.8152 26.944 36.0825 28.532 36.5664 30.0013L39.7434 39.6459C39.052 41.15 38.6669 42.8236 38.6669 44.5833C38.6669 51.1187 43.9648 56.4167 50.5002 56.4167C57.0356 56.4167 62.3335 51.1187 62.3335 44.5833C62.3335 42.8236 61.9484 41.15 61.2568 39.6457L64.4339 30.0013C64.9179 28.532 64.1851 26.944 62.7242 26.4357C59.7265 25.3929 54.6501 23.875 50.5002 23.875ZM42.1871 42.2536C47.7438 39.9714 53.2566 39.9714 58.8133 42.2536C58.9029 42.2903 58.9951 42.318 59.0887 42.3365C59.2756 43.0533 59.3752 43.8062 59.3752 44.5833C59.3752 49.4848 55.4017 53.4583 50.5002 53.4583C45.5987 53.4583 41.6252 49.4848 41.6252 44.5833C41.6252 43.8062 41.7247 43.0533 41.9117 42.3365C42.0053 42.318 42.0975 42.2903 42.1871 42.2536ZM51.9794 31.2708H54.9377V34.2292H51.9794V37.1875H49.021V34.2292H46.0627V31.2708H49.021V28.3125H51.9794V31.2708Z" fill="#0D45ED"/>
<path fill-rule="evenodd" clip-rule="evenodd" d="M48.8001 62.619L39.9663 56.4167C39.9663 56.4167 23.875 61.4358 23.875 67.4615V77.1253H77.125V67.4615C77.125 61.4358 61.0337 56.4167 61.0337 56.4167L52.1999 62.619C51.1798 63.3352 49.8202 63.3352 48.8001 62.619ZM62.3333 62.3333H65.2917V65.2917H68.25V68.25H65.2917V71.2083H62.3333V68.25H59.375V65.2917H62.3333V62.3333Z" fill="#0D45ED"/>
<g clip-path="url(#clip1_460_626)">
<path d="M50.5669 -11.3118C84.3454 -11.3118 111.953 16.2408 111.953 50.1933C111.953 84.0374 84.4536 111.698 50.5669 111.698C16.6801 111.698 -10.8191 84.1459 -10.8191 50.1933C-10.8191 16.2408 16.6801 -11.3118 50.5669 -11.3118ZM50.5669 -12.3965C16.1388 -12.3965 -11.7935 15.5899 -11.7935 50.0849C-11.7935 84.5798 16.1388 112.566 50.5669 112.566C84.995 112.566 112.927 84.5798 112.927 50.0849C112.927 15.5899 84.995 -12.3965 50.5669 -12.3965Z" fill="#082D9B"/>
<path d="M50.5669 -11.3118C84.3454 -11.3118 111.953 16.2408 111.953 50.1933C111.953 84.0374 84.4536 111.698 50.5669 111.698C16.6801 111.698 -10.8191 84.1459 -10.8191 50.1933C-10.8191 16.2408 16.6801 -11.3118 50.5669 -11.3118ZM50.5669 -12.3965C16.1388 -12.3965 -11.7935 15.5899 -11.7935 50.0849C-11.7935 84.5798 16.1388 112.566 50.5669 112.566C84.995 112.566 112.927 84.5798 112.927 50.0849C112.927 15.5899 84.995 -12.3965 50.5669 -12.3965Z" fill="black" fill-opacity="0.2"/>
<path d="M50.5669 5.06802C75.3595 5.06802 95.4967 25.2443 95.4967 50.085C95.4967 74.9257 75.3595 95.1017 50.5669 95.1017C25.7744 95.1017 5.6372 74.9257 5.6372 50.085C5.6372 25.2443 25.6661 5.06802 50.5669 5.06802ZM50.5669 3.98328C25.1248 3.98328 4.44629 24.7019 4.44629 50.1934C4.44629 75.685 25.1248 96.4034 50.5669 96.4034C76.0091 96.4034 96.6876 75.685 96.6876 50.1934C96.5793 24.7019 75.9008 3.98328 50.5669 3.98328Z" fill="#082D9B"/>
<path d="M50.5 4.10329C75.4965 4.10329 95.7993 24.6245 95.7993 49.8898C95.7993 75.1551 75.4965 95.6761 50.5 95.6761C25.5035 95.6761 5.2007 75.1551 5.2007 49.8898C5.2007 24.6245 25.3944 4.10329 50.5 4.10329ZM50.5 3C24.8486 3 4 24.0728 4 50.0001C4 75.9274 24.8486 97 50.5 97C76.1514 97 97 75.9274 97 50.0001C96.8908 24.0728 76.0423 3 50.5 3Z" fill="#082D9B"/>
<path d="M50.5669 7.45424C74.1686 7.45424 93.2231 26.5458 93.2231 50.1932H115.634C115.634 14.1797 86.5107 -15 50.5669 -15C14.6231 -15 -14.5 14.1797 -14.5 50.1932H7.91074C7.91074 26.5458 26.9653 7.45424 50.5669 7.45424Z" fill="#082D9B"/>
<path d="M50.5669 7.45424C74.1686 7.45424 93.2231 26.5458 93.2231 50.1932H115.634C115.634 14.1797 86.5107 -15 50.5669 -15C14.6231 -15 -14.5 14.1797 -14.5 50.1932H7.91074C7.91074 26.5458 26.9653 7.45424 50.5669 7.45424Z" fill="#082D9B"/>
</g>
</g>
<defs>
<clipPath id="clip0_460_626">
<rect x="0.5" width="100" height="100" rx="50" fill="white"/>
</clipPath>
<clipPath id="clip1_460_626">
<rect width="131" height="128" fill="white" transform="translate(-14.5 -15)"/>
</clipPath>
</defs>
</svg>
