<svg width="437" height="321" viewBox="0 0 437 321" fill="none" xmlns="http://www.w3.org/2000/svg">
<g clip-path="url(#clip0_442_1764)">
<path d="M204.416 230.98C204.158 231.106 203.905 231.227 203.646 231.359C200.188 233.066 196.874 235.049 193.736 237.29C193.49 237.458 193.243 237.638 193.003 237.812C185.507 243.283 179.092 250.097 174.084 257.907C172.953 259.661 171.907 261.47 170.933 263.315C170.187 264.745 169.486 266.199 168.828 267.677C166.356 273.284 164.155 279.683 159.291 283.12C158.768 283.496 158.217 283.829 157.643 284.118C157.595 284.142 157.54 284.166 157.492 284.19C157.465 281.043 156.985 277.916 156.067 274.906C155.917 274.401 155.748 273.896 155.568 273.404C155.484 273.169 155.4 272.935 155.304 272.707C154.706 271.126 153.976 269.598 153.12 268.14C150.685 263.848 147.142 260.287 142.861 257.828C141.627 260.886 140.056 263.796 138.177 266.505C139.596 263.525 141.136 260.617 142.826 257.804C142.866 257.727 142.912 257.652 142.964 257.582C143.216 257.149 143.481 256.723 143.745 256.296C147.825 249.594 153.003 243.624 159.062 238.636C163.257 235.271 167.957 232.59 172.989 230.692C182.972 226.924 194.055 226.383 203.689 230.65C203.935 230.758 204.176 230.866 204.416 230.98Z" fill="#F0F0F0"/>
<path d="M204.314 231.305C204.092 231.323 203.869 231.341 203.646 231.359C198.96 231.75 194.332 232.659 189.846 234.069C189.623 234.141 189.394 234.213 189.166 234.285C182.954 236.298 177.092 239.26 171.787 243.064C171.733 243.1 171.672 243.142 171.618 243.184C170.385 244.08 169.185 245.021 168.016 246.009C165.773 247.817 163.831 249.969 162.261 252.384C161.025 254.408 160.277 256.692 160.078 259.054C160.054 259.289 160.036 259.529 160.018 259.763C160.012 259.956 160 260.142 159.994 260.334C159.94 262.137 160.024 263.97 159.85 265.766C159.78 266.585 159.635 267.396 159.417 268.188C158.983 269.72 158.154 271.11 157.011 272.22C156.568 272.658 156.085 273.054 155.568 273.404C155.484 273.169 155.4 272.935 155.304 272.707C155.814 272.352 156.289 271.95 156.723 271.505C157.528 270.681 158.145 269.693 158.533 268.609C158.825 267.762 159.019 266.885 159.11 265.995C159.315 264.228 159.23 262.413 159.272 260.653C159.284 260.196 159.309 259.745 159.345 259.301C159.493 257.024 160.127 254.805 161.203 252.793C162.644 250.306 164.498 248.083 166.687 246.219C168.059 244.993 169.492 243.838 170.981 242.758C171.173 242.614 171.366 242.469 171.564 242.337C181.038 235.649 192.129 231.614 203.689 230.65C203.911 230.626 204.128 230.614 204.35 230.596C204.807 230.56 204.771 231.275 204.314 231.305Z" fill="white"/>
<path d="M171.152 243.047C169.943 241.132 169.455 238.85 169.774 236.609C170.093 234.367 171.199 232.312 172.895 230.811C173.239 230.508 173.726 231.028 173.381 231.331C171.8 232.727 170.77 234.641 170.477 236.729C170.184 238.817 170.647 240.94 171.784 242.717C172.03 243.103 171.397 243.431 171.152 243.047Z" fill="white"/>
<path d="M159.862 259.005C164.37 260.067 169.113 259.392 173.145 257.115C173.545 256.889 173.875 257.52 173.476 257.746C169.275 260.108 164.338 260.8 159.65 259.685C159.203 259.578 159.418 258.899 159.862 259.005Z" fill="white"/>
<path d="M189.759 233.863C190.073 234.701 190.589 235.448 191.263 236.038C191.937 236.627 192.747 237.04 193.62 237.24C194.068 237.34 193.852 238.019 193.407 237.919C192.443 237.694 191.55 237.237 190.804 236.588C190.058 235.938 189.483 235.116 189.128 234.193C189.087 234.109 189.08 234.012 189.108 233.923C189.136 233.834 189.197 233.758 189.278 233.712C189.362 233.669 189.46 233.661 189.55 233.689C189.64 233.717 189.715 233.78 189.759 233.863Z" fill="white"/>
<path d="M217.964 283.974C217.688 283.92 217.411 283.866 217.135 283.823L217.128 283.817H217.117C213.33 283.092 209.491 282.68 205.637 282.586H205.631C205.33 282.574 205.035 282.562 204.741 282.562H204.735C195.453 282.418 186.226 283.999 177.523 287.225C177.511 287.231 177.505 287.231 177.493 287.237C174.028 288.521 170.666 290.07 167.438 291.869C163.993 293.786 160.445 296.04 156.764 297.35C156.027 297.62 155.274 297.844 154.509 298.023C154.69 297.638 154.864 297.248 155.027 296.857C156.226 293.991 156.998 290.964 157.318 287.874C157.348 287.615 157.372 287.357 157.39 287.092C157.468 286.131 157.504 285.157 157.492 284.19C157.464 281.043 156.984 277.917 156.067 274.906C155.916 274.401 155.748 273.897 155.568 273.404C155.484 273.17 155.399 272.935 155.303 272.707C154.706 271.126 153.975 269.598 153.12 268.14C153.667 267.918 154.221 267.701 154.774 267.497C156.205 266.956 157.654 266.457 159.11 265.995H159.116C159.356 265.917 159.603 265.839 159.849 265.766C163.471 264.651 167.178 263.832 170.932 263.315C172.989 263.037 175.058 262.864 177.132 262.798C182.494 262.637 187.847 263.321 192.996 264.823C193.008 264.829 193.02 264.829 193.032 264.835C203.279 267.828 212.45 274.065 217.579 283.271C217.712 283.505 217.838 283.733 217.964 283.974Z" fill="#F0F0F0"/>
<path d="M217.688 284.172C217.502 284.052 217.321 283.938 217.135 283.823L217.129 283.817C213.149 281.309 208.904 279.249 204.47 277.676C204.248 277.592 204.019 277.514 203.797 277.442C197.618 275.306 191.144 274.143 184.608 273.993C184.535 273.987 184.469 273.987 184.403 273.987C182.882 273.957 181.362 273.987 179.845 274.077C176.966 274.171 174.12 274.72 171.414 275.705C169.207 276.577 167.234 277.951 165.653 279.719C165.484 279.894 165.328 280.068 165.178 280.248C165.051 280.398 164.931 280.542 164.811 280.693C163.169 282.73 161.726 285.007 159.615 286.612C159.489 286.708 159.363 286.798 159.236 286.876C158.642 287.288 157.997 287.623 157.318 287.873C157.348 287.615 157.372 287.357 157.39 287.092C157.833 286.909 158.258 286.683 158.659 286.419C158.876 286.275 159.086 286.125 159.29 285.963C161.197 284.484 162.556 282.387 164.041 280.506C164.312 280.164 164.582 279.839 164.871 279.521C166.365 277.766 168.224 276.357 170.319 275.393C172.966 274.273 175.785 273.615 178.654 273.446C180.486 273.291 182.324 273.228 184.162 273.26C184.403 273.26 184.643 273.266 184.884 273.278C191.517 273.48 198.08 274.698 204.344 276.889C208.985 278.506 213.425 280.647 217.58 283.271C217.772 283.385 217.959 283.505 218.145 283.625C218.53 283.877 218.073 284.418 217.688 284.172Z" fill="white"/>
<path d="M184.134 273.598C184.323 271.342 185.307 269.226 186.913 267.629C188.518 266.031 190.64 265.056 192.898 264.877C193.355 264.842 193.431 265.551 192.973 265.585C190.869 265.748 188.893 266.657 187.401 268.147C185.91 269.638 185 271.613 184.837 273.714C184.801 274.171 184.098 274.052 184.134 273.598Z" fill="white"/>
<path d="M165.505 279.548C168.464 283.108 172.658 285.422 177.249 286.03C177.704 286.089 177.587 286.792 177.133 286.732C172.356 286.091 167.997 283.674 164.925 279.962C164.633 279.608 165.214 279.196 165.505 279.548Z" fill="white"/>
<path d="M204.525 277.46C204.27 278.317 204.232 279.225 204.415 280.101C204.598 280.977 204.995 281.794 205.572 282.478C205.869 282.828 205.288 283.24 204.993 282.893C204.359 282.134 203.921 281.231 203.717 280.264C203.513 279.296 203.549 278.294 203.822 277.343C203.84 277.252 203.892 277.17 203.969 277.116C204.045 277.061 204.139 277.038 204.231 277.05C204.324 277.066 204.407 277.118 204.462 277.195C204.517 277.271 204.54 277.366 204.525 277.46Z" fill="white"/>
<path d="M27.9641 144.345C18.6677 131.129 15.418 112.753 23.2477 98.6202C29.8672 114.895 42.0343 128.305 57.5962 136.479C63.6092 139.609 70.6233 142.465 73.2894 148.695C74.9484 152.571 74.5037 157.089 72.9973 161.026C71.4908 164.964 69.0075 168.44 66.5507 171.867L66.4002 172.908C51.6223 166.358 37.2605 157.561 27.9641 144.345Z" fill="#F0F0F0"/>
<path d="M23.5642 98.7429C23.6676 112.114 27.9846 125.112 35.902 135.892C37.5653 138.243 39.5889 140.317 41.8985 142.038C44.2025 143.642 46.8944 144.6 49.6944 144.813C52.3011 145.064 54.9966 145.019 57.4969 145.898C58.7701 146.368 59.9296 147.101 60.8994 148.049C61.8692 148.998 62.6274 150.14 63.1243 151.402C64.4443 154.514 64.5666 157.914 64.5705 161.243C64.5749 164.94 64.5208 168.779 66.1823 172.18C66.3837 172.592 65.732 172.88 65.531 172.469C62.6402 166.552 64.7776 159.768 63.1201 153.581C62.3466 150.695 60.6979 148.024 57.8627 146.805C55.3834 145.739 52.6037 145.784 49.9622 145.552C47.2277 145.385 44.5758 144.551 42.2383 143.123C39.8485 141.525 37.7482 139.532 36.0275 137.23C32.0709 132.108 28.9447 126.397 26.7634 120.306C24.2354 113.367 22.9139 106.048 22.856 98.6637C22.8526 98.2067 23.5608 98.2889 23.5642 98.7429Z" fill="white"/>
<path d="M33.1481 132.571C31.1578 133.653 28.8475 133.992 26.6297 133.529C24.412 133.066 22.4312 131.83 21.0411 130.042C20.761 129.68 21.3119 129.228 21.5923 129.591C22.8837 131.258 24.729 132.409 26.795 132.836C28.8611 133.263 31.0119 132.938 32.8592 131.92C33.2609 131.699 33.5475 132.351 33.1481 132.571Z" fill="white"/>
<path d="M48.3556 144.86C49.7072 140.433 49.3395 135.66 47.3257 131.492C47.1259 131.08 47.7774 130.791 47.9771 131.204C50.0645 135.545 50.4371 140.512 49.0204 145.116C48.8851 145.554 48.221 145.296 48.3556 144.86Z" fill="white"/>
<path d="M25.1785 113.423C26.0359 113.165 26.8157 112.698 27.4478 112.064C28.0799 111.43 28.5446 110.65 28.8001 109.792C28.9298 109.352 29.5938 109.611 29.4649 110.048C29.1782 110.994 28.664 111.856 27.9671 112.558C27.2703 113.259 26.4121 113.78 25.4674 114.074C25.3807 114.109 25.2838 114.11 25.1965 114.076C25.1092 114.043 25.038 113.977 24.9973 113.893C24.9595 113.807 24.9573 113.709 24.9912 113.621C25.0252 113.533 25.0925 113.462 25.1785 113.423Z" fill="white"/>
<path d="M77.0463 88.5364C76.9731 88.8136 76.9 89.0907 76.8306 89.3725C75.8663 93.1037 75.2069 96.907 74.859 100.745C74.8274 101.041 74.7998 101.342 74.7767 101.638C74.0371 110.894 75.0235 120.206 77.6858 129.101C78.7485 132.64 80.079 136.092 81.6659 139.429C83.8577 144.038 86.6012 148.86 87.126 153.778C87.1866 154.291 87.2153 154.807 87.212 155.323L67.6835 173.011C67.619 173.029 67.5582 173.052 67.4934 173.07L66.746 173.812C66.6521 173.645 66.5584 173.471 66.4645 173.304C66.4096 173.208 66.3591 173.108 66.3043 173.011C66.2691 172.946 66.2341 172.88 66.1986 172.823C66.1868 172.801 66.1752 172.78 66.1674 172.762C66.132 172.705 66.105 172.648 66.0736 172.596C65.5466 171.621 65.0257 170.642 64.5106 169.656C64.5066 169.652 64.5066 169.652 64.5069 169.643C60.6017 162.126 57.2903 154.217 55.2855 146.057C55.2253 145.812 55.1608 145.562 55.1095 145.309C54.2262 141.625 53.6457 137.876 53.3737 134.099C53.2314 132.03 53.194 129.955 53.2617 127.882C53.4469 122.527 54.4739 117.234 56.3051 112.198C59.957 102.158 66.7815 93.3977 76.3145 88.8748C76.5585 88.7593 76.7983 88.6475 77.0463 88.5364Z" fill="#F0F0F0"/>
<path d="M77.2272 88.8238C69.2535 99.562 64.8686 112.538 64.6952 125.908C64.6068 128.785 64.9728 131.659 65.7799 134.423C66.6531 137.089 68.2251 139.474 70.3324 141.328C72.2626 143.097 74.4419 144.683 75.9082 146.889C76.642 148.03 77.1263 149.313 77.3291 150.653C77.532 151.994 77.449 153.363 77.0854 154.669C76.2644 157.948 74.3133 160.736 72.3105 163.397C70.0867 166.351 67.7301 169.384 67.0076 173.099C66.9201 173.549 66.2263 173.387 66.3137 172.938C67.5706 166.474 73.3649 162.343 75.7688 156.407C76.8906 153.637 77.1836 150.512 75.6541 147.833C74.3165 145.491 72.0706 143.854 70.1008 142.08C68.0184 140.301 66.4037 138.04 65.3976 135.493C64.4523 132.78 63.9761 129.925 63.9893 127.051C63.9159 120.582 64.8608 114.141 66.7896 107.965C68.9518 100.904 72.3068 94.2649 76.7095 88.3345C76.9821 87.9676 77.498 88.4593 77.2272 88.8238Z" fill="white"/>
<path d="M64.4974 121.599C62.2564 121.266 60.2071 120.147 58.7154 118.443C57.2237 116.739 56.3867 114.561 56.354 112.297C56.3535 112.204 56.3889 112.116 56.4527 112.049C56.5166 111.982 56.6038 111.943 56.6962 111.939C56.7885 111.935 56.8787 111.967 56.9477 112.029C57.0167 112.09 57.0592 112.176 57.0661 112.268C57.0927 114.376 57.8725 116.405 59.2649 117.989C60.6572 119.573 62.5703 120.608 64.6589 120.906C65.1127 120.971 64.9486 121.664 64.4974 121.599Z" fill="white"/>
<path d="M69.2355 140.561C72.9818 137.839 75.5641 133.807 76.4673 129.268C76.5565 128.818 77.2503 128.98 77.1613 129.429C76.2125 134.151 73.5168 138.342 69.612 141.165C69.2397 141.434 68.8652 140.828 69.2355 140.561Z" fill="white"/>
<path d="M69.6707 101.516C70.5108 101.826 71.4148 101.922 72.3014 101.797C73.188 101.671 74.0294 101.327 74.7502 100.796C75.1189 100.523 75.4931 101.129 75.1267 101.4C74.3277 101.983 73.3979 102.362 72.4187 102.503C71.4394 102.644 70.4405 102.544 69.5092 102.21C69.4188 102.186 69.3409 102.128 69.2914 102.049C69.242 101.969 69.2247 101.874 69.2429 101.782C69.2648 101.691 69.322 101.611 69.4021 101.562C69.4821 101.512 69.5787 101.496 69.6707 101.516Z" fill="white"/>
<path d="M159.291 283.12C159.116 279.389 158.347 275.709 157.012 272.22C156.921 271.98 156.825 271.745 156.723 271.505C156.164 270.127 155.513 268.788 154.774 267.497C152.173 262.84 148.363 258.971 143.746 256.296C143.655 256.248 143.571 256.2 143.487 256.152C144.908 252.115 145.385 247.807 144.882 243.557C143.812 235.042 139.049 227.465 133.3 221.282C122.638 209.804 107.646 202.948 97.3029 191.255C97.1705 191.104 97.0322 190.948 96.9001 190.792C96.7618 190.636 96.6293 190.474 96.491 190.311C95.1206 188.694 93.859 186.988 92.7147 185.204C90.7622 182.136 89.1395 178.871 87.8736 175.463C87.4346 174.279 87.0317 173.071 86.677 171.858C86.3223 170.668 86.0096 169.466 85.7389 168.252C85.4743 167.056 85.2478 165.855 85.0594 164.647C84.873 163.451 84.7266 162.249 84.6204 161.041C84.5121 159.84 84.4419 158.638 84.4099 157.436C84.2516 151.559 85.0227 145.694 86.6949 140.058C86.7492 139.86 86.8091 139.667 86.8755 139.469C86.9354 139.271 86.9956 139.072 87.0617 138.874C87.116 138.7 87.17 138.532 87.2302 138.357C90.0144 130.041 94.9756 123.04 101.115 116.851C104.952 112.981 109.095 109.406 113.076 105.674C113.221 105.542 113.365 105.404 113.51 105.266C113.66 105.128 113.816 104.983 113.966 104.839C116.488 102.479 118.877 99.9819 121.123 97.3579C122.422 95.8214 123.632 94.2124 124.749 92.5387C125.537 91.373 126.27 90.1651 126.944 88.9333C127.593 87.7555 128.185 86.5537 128.718 85.3279C129.229 84.1501 129.686 82.9423 130.077 81.7225C130.458 80.539 130.773 79.3353 131.021 78.1171C131.268 76.9269 131.442 75.7229 131.544 74.5117C131.549 74.5004 131.551 74.488 131.55 74.4756C132.103 68.2918 130.246 62.1333 126.366 57.2839C126.222 57.0976 126.072 56.9173 125.915 56.7371C125.765 56.5508 125.609 56.3705 125.446 56.1962C124.648 55.2924 123.784 54.4488 122.861 53.6725C112.992 45.3199 100.069 43.9078 88.1082 40.1702C87.9159 40.1101 87.7294 40.05 87.5368 39.9899C87.3386 39.9238 87.1401 39.8638 86.9416 39.7977C83.8598 38.8182 80.8681 37.5758 77.9994 36.0841C77.9633 36.0661 77.9333 36.048 77.8972 36.03C76.2751 35.1641 74.7264 34.1673 73.2666 33.0496C71.8538 31.9724 70.5452 30.7653 69.3578 29.4441C69.0513 29.1076 68.7567 28.7651 68.474 28.4166C67.8066 27.6054 66.6999 28.5849 67.0549 29.4441C67.089 29.5355 67.1377 29.6207 67.199 29.6965C68.1772 30.897 69.249 32.0182 70.4043 33.0496C71.9163 34.403 73.5533 35.6102 75.2933 36.655C78.6818 38.6424 82.2901 40.2294 86.0454 41.384C86.2439 41.4501 86.4424 41.5102 86.6409 41.5763C86.8332 41.6364 87.0259 41.6965 87.2244 41.7566C94.4706 44.01 102.144 45.4461 109.011 48.006C114.207 49.9409 119.439 52.6209 123.378 56.5928C123.54 56.7611 123.702 56.9293 123.859 57.0976C124.021 57.2659 124.177 57.4401 124.334 57.6144C125.288 58.6916 126.137 59.8566 126.871 61.0936C129.206 65.1566 130.195 69.8531 129.698 74.5117C129.592 75.7235 129.411 76.9276 129.157 78.1171C128.895 79.3375 128.562 80.5414 128.158 81.7225C127.798 82.8101 127.377 83.8737 126.914 84.9193C126.854 85.0575 126.787 85.1957 126.727 85.3279C126.156 86.5718 125.53 87.7736 124.851 88.9333C124.129 90.1772 123.354 91.373 122.524 92.5387C119.559 96.5724 116.214 100.313 112.535 103.709C112.385 103.854 112.235 103.998 112.084 104.136C111.94 104.274 111.796 104.407 111.657 104.545C105.121 110.698 98.1086 116.485 92.7986 123.683C89.4407 128.268 86.8699 133.38 85.1915 138.808C85.1313 139.006 85.0652 139.205 85.0112 139.409C84.9452 139.607 84.8849 139.806 84.8306 140.01C83.208 145.672 82.4637 151.549 82.6237 157.436C82.654 158.638 82.72 159.84 82.8284 161.041C82.9306 162.249 83.0708 163.451 83.2491 164.647C83.3334 165.242 83.4297 165.831 83.5378 166.419C83.6461 167.032 83.7665 167.645 83.9045 168.252C84.1573 169.466 84.458 170.668 84.7948 171.858C85.1375 173.071 85.5283 174.273 85.9552 175.463C87.4255 179.594 89.4053 183.526 91.8487 187.169C92.7628 188.521 93.7367 189.813 94.7712 191.056C94.9095 191.219 95.0478 191.387 95.1861 191.549C95.3185 191.711 95.4568 191.868 95.5951 192.024C99.6963 196.747 104.585 200.761 109.612 204.517C122.866 214.413 139.584 224.587 142.868 242.247C143.643 246.622 143.292 251.122 141.845 255.323C139.929 254.435 137.911 253.784 135.838 253.382C129.411 252.245 122.789 253.175 116.925 256.038C116.745 256.128 116.564 256.218 116.384 256.308C116.197 256.41 116.011 256.507 115.831 256.609C112.162 258.531 109.101 261.435 106.991 264.997C106.349 266.141 105.831 267.35 105.445 268.603C105.088 269.777 104.85 270.985 104.736 272.208C104.682 272.767 104.651 273.344 104.645 273.927C104.639 274.557 104.671 275.187 104.742 275.813C104.877 277.052 105.187 278.266 105.662 279.419C106.15 280.626 106.869 281.726 107.778 282.658C107.905 282.784 108.031 282.91 108.163 283.024C109.455 284.134 111.001 284.907 112.664 285.275C114.327 285.643 116.055 285.594 117.695 285.133C118.605 284.898 119.493 284.583 120.347 284.19C120.623 284.07 120.894 283.938 121.159 283.793C121.423 283.661 121.688 283.517 121.953 283.367C124.278 281.976 126.415 280.292 128.309 278.355C131.487 275.178 134.407 271.752 137.04 268.11C137.425 267.581 137.804 267.046 138.177 266.505C140.056 263.796 141.627 260.886 142.861 257.828C147.142 260.287 150.685 263.848 153.121 268.14C153.976 269.598 154.706 271.126 155.304 272.707C155.4 272.935 155.484 273.169 155.568 273.404C155.749 273.897 155.917 274.401 156.067 274.906C156.985 277.917 157.465 281.043 157.492 284.19C157.504 285.157 157.468 286.131 157.39 287.092C157.372 287.357 157.348 287.615 157.318 287.874C156.999 290.964 156.227 293.991 155.027 296.857C154.864 297.248 154.69 297.638 154.51 298.023C151.31 304.707 146.271 310.341 139.981 314.265C136.744 316.321 133.239 317.922 129.565 319.024C128.459 319.361 128.928 321.103 130.047 320.767C141.719 317.246 152.122 308.593 156.765 297.35C158.108 294.109 158.936 290.679 159.218 287.182C159.224 287.08 159.237 286.978 159.237 286.876C159.26 286.57 159.279 286.269 159.291 285.963C159.333 285.019 159.327 284.07 159.291 283.12ZM135.91 266.608C133.337 270.211 130.479 273.603 127.365 276.751C125.949 278.211 124.407 279.544 122.758 280.735C122.512 280.909 122.259 281.077 122.007 281.246C121.754 281.408 121.495 281.564 121.237 281.714C119.803 282.579 118.234 283.197 116.594 283.541C114.486 283.969 112.294 283.583 110.46 282.459C109.265 281.716 108.292 280.666 107.64 279.419C107.58 279.316 107.526 279.209 107.478 279.1C106.995 278.061 106.68 276.951 106.546 275.813C106.394 274.616 106.396 273.405 106.552 272.208C106.675 271.202 106.886 270.209 107.183 269.24C107.249 269.023 107.322 268.813 107.394 268.603C107.843 267.333 108.445 266.122 109.186 264.997C111.167 262.064 113.834 259.657 116.955 257.985C117.136 257.882 117.316 257.786 117.502 257.69C117.677 257.594 117.851 257.504 118.031 257.42C119.358 256.763 120.738 256.22 122.157 255.797C128.457 253.889 135.234 254.316 141.244 256.999C139.873 260.411 138.081 263.639 135.91 266.608Z" fill="#E4E4E4"/>
<path d="M63.4526 54.6819C78.398 54.6819 90.5136 42.5755 90.5136 27.6414C90.5136 12.7073 78.398 0.600891 63.4526 0.600891C48.5072 0.600891 36.3916 12.7073 36.3916 27.6414C36.3916 42.5755 48.5072 54.6819 63.4526 54.6819Z" fill="white"/>
<path d="M63.4522 2.59701e-06C58.6104 -0.00209435 53.8528 1.26573 49.6551 3.67673C45.4573 6.08774 41.9664 9.55747 39.5312 13.7391C37.096 17.9208 35.8019 22.6679 35.7782 27.506C35.7544 32.3441 37.0019 37.1036 39.396 41.3089C41.7901 45.5142 45.2468 49.018 49.4207 51.47C53.5946 53.922 58.3395 55.2363 63.1811 55.2816C68.0226 55.327 72.7913 54.1017 77.0105 51.7282C81.2296 49.3548 84.7514 45.9164 87.2239 41.7566C87.5363 41.2398 87.8309 40.711 88.1077 40.1702C90.253 35.9565 91.2807 31.2633 91.0926 26.5393C90.9045 21.8154 89.5069 17.2186 87.0333 13.1885C84.5597 9.15841 81.0929 5.82971 76.9643 3.52068C72.8357 1.21164 68.1834 -0.000551264 63.4522 2.59701e-06ZM63.4522 54.0811C57.6734 54.0856 52.0518 52.2011 47.445 48.7151C42.8381 45.2291 39.4989 40.333 37.9368 34.7736C36.3746 29.2143 36.6753 23.2969 38.7929 17.9242C40.9105 12.5515 44.7288 8.01851 49.6653 5.01667C54.6018 2.01484 60.3855 0.708993 66.134 1.29834C71.8826 1.8877 77.2804 4.33989 81.504 8.28084C85.7276 12.2218 88.5452 17.4351 89.5269 23.1256C90.5086 28.816 89.6005 34.6711 86.9411 39.7977C86.6645 40.3385 86.3638 40.8673 86.045 41.384C83.6853 45.2592 80.3676 48.4625 76.411 50.6862C72.4543 52.9098 67.9917 54.0789 63.4522 54.0811Z" fill="#E4E4E4"/>
<path d="M50.2226 22.2333L76.6823 22.2333C77.6786 22.2333 78.4863 21.4262 78.4863 20.4306C78.4863 19.435 77.6786 18.6279 76.6823 18.6279L50.2226 18.6279C49.2263 18.6279 48.4186 19.435 48.4186 20.4306C48.4186 21.4262 49.2263 22.2333 50.2226 22.2333Z" fill="#E4E4E4"/>
<path d="M50.2226 29.4441L76.6823 29.4441C77.6786 29.4441 78.4863 28.637 78.4863 27.6414C78.4863 26.6458 77.6786 25.8387 76.6823 25.8387L50.2226 25.8387C49.2263 25.8387 48.4186 26.6458 48.4186 27.6414C48.4186 28.637 49.2263 29.4441 50.2226 29.4441Z" fill="#E4E4E4"/>
<path d="M50.2226 36.6549H76.6823C77.6786 36.6549 78.4863 35.8478 78.4863 34.8522C78.4863 33.8566 77.6786 33.0495 76.6823 33.0495H50.2226C49.2263 33.0495 48.4186 33.8566 48.4186 34.8522C48.4186 35.8478 49.2263 36.6549 50.2226 36.6549Z" fill="#E4E4E4"/>
<path d="M85.101 193.49C100.046 193.49 112.162 181.384 112.162 166.449C112.162 151.515 100.046 139.409 85.101 139.409C70.1557 139.409 58.04 151.515 58.04 166.449C58.04 181.384 70.1557 193.49 85.101 193.49Z" fill="white"/>
<path d="M87.0615 138.874C86.4422 138.832 85.823 138.808 85.1914 138.808H85.1012C81.015 138.808 76.9794 139.712 73.2845 141.456C69.5897 143.2 66.3274 145.74 63.7321 148.894C61.1368 152.048 59.2731 155.737 58.2748 159.696C57.2764 163.656 57.1684 167.787 57.9584 171.793C58.7484 175.799 60.4168 179.581 62.8436 182.866C65.2705 186.151 68.3956 188.858 71.9942 190.792C75.5929 192.727 79.5757 193.84 83.6564 194.053C87.7371 194.266 91.8143 193.573 95.595 192.024C96.1723 191.783 96.7434 191.525 97.3027 191.255C102.759 188.575 107.18 184.174 109.882 178.731C112.584 173.289 113.416 167.109 112.25 161.147C111.084 155.184 107.986 149.772 103.432 145.746C98.8794 141.72 93.1259 139.305 87.0615 138.874ZM85.1012 192.889C78.1071 192.889 71.3976 190.122 66.4395 185.192C61.4814 180.263 58.678 173.573 58.6422 166.584C58.6065 159.595 61.3412 152.877 66.2486 147.897C71.156 142.917 77.8368 140.082 84.8305 140.01H85.1012C85.6365 140.01 86.1656 140.028 86.6948 140.058C92.5502 140.411 98.1223 142.698 102.535 146.56C106.948 150.422 109.951 155.64 111.073 161.393C112.194 167.147 111.371 173.109 108.731 178.344C106.091 183.579 101.786 187.788 96.4908 190.311C95.9256 190.582 95.3542 190.828 94.771 191.056C91.6921 192.271 88.4113 192.892 85.1012 192.889Z" fill="#E4E4E4"/>
<path d="M71.8711 161.041H98.3307C99.3271 161.041 100.135 160.234 100.135 159.239C100.135 158.243 99.3271 157.436 98.3307 157.436H71.8711C70.8747 157.436 70.067 158.243 70.067 159.239C70.067 160.234 70.8747 161.041 71.8711 161.041Z" fill="#E4E4E4"/>
<path d="M71.8711 168.252H98.3307C99.3271 168.252 100.135 167.445 100.135 166.449C100.135 165.454 99.3271 164.647 98.3307 164.647H71.8711C70.8747 164.647 70.067 165.454 70.067 166.449C70.067 167.445 70.8747 168.252 71.8711 168.252Z" fill="#E4E4E4"/>
<path d="M71.8711 175.463H98.3307C99.3271 175.463 100.135 174.656 100.135 173.66C100.135 172.665 99.3271 171.858 98.3307 171.858H71.8711C70.8747 171.858 70.067 172.665 70.067 173.66C70.067 174.656 70.8747 175.463 71.8711 175.463Z" fill="#E4E4E4"/>
<path d="M95.9257 301.051C110.871 301.051 122.987 288.945 122.987 274.011C122.987 259.077 110.871 246.97 95.9257 246.97C80.9804 246.97 68.8647 259.077 68.8647 274.011C68.8647 288.945 80.9804 301.051 95.9257 301.051Z" fill="white"/>
<path d="M118.031 257.42C117.677 256.945 117.31 256.488 116.925 256.038C112.968 251.425 107.601 248.244 101.653 246.987C95.705 245.73 89.5081 246.466 84.0212 249.083C78.5343 251.699 74.0631 256.049 71.2995 261.46C68.5359 266.871 67.6339 273.041 68.7331 279.016C69.8322 284.991 72.8713 290.437 77.38 294.513C81.8888 298.588 87.6159 301.065 93.6752 301.56C99.7345 302.055 105.788 300.542 110.9 297.253C116.012 293.964 119.896 289.084 121.953 283.367C122.267 282.504 122.536 281.626 122.758 280.735C123.76 276.742 123.856 272.576 123.038 268.542C122.22 264.508 120.51 260.708 118.031 257.42ZM95.9257 300.45C91.4988 300.453 87.1419 299.346 83.2542 297.23C79.3665 295.114 76.0722 292.057 73.6731 288.339C71.2739 284.622 69.8466 280.362 69.5219 275.95C69.1972 271.538 69.9854 267.116 71.8144 263.087C73.6434 259.059 76.4547 255.553 79.9908 252.892C83.5268 250.23 87.6747 248.498 92.0544 247.853C96.4341 247.209 100.906 247.672 105.06 249.202C109.213 250.732 112.917 253.278 115.831 256.609C116.221 257.053 116.594 257.51 116.955 257.985C119.504 261.316 121.222 265.206 121.966 269.332C122.711 273.459 122.461 277.703 121.237 281.714C120.983 282.554 120.686 283.381 120.347 284.19C118.332 289.003 114.939 293.113 110.594 296.006C106.249 298.899 101.147 300.445 95.9257 300.45Z" fill="#E4E4E4"/>
<path d="M82.6958 268.603H109.155C110.152 268.603 110.959 267.796 110.959 266.8C110.959 265.804 110.152 264.997 109.155 264.997H82.6958C81.6994 264.997 80.8917 265.804 80.8917 266.8C80.8917 267.796 81.6994 268.603 82.6958 268.603Z" fill="#E4E4E4"/>
<path d="M82.6958 275.813H109.155C110.152 275.813 110.959 275.006 110.959 274.011C110.959 273.015 110.152 272.208 109.155 272.208H82.6958C81.6994 272.208 80.8917 273.015 80.8917 274.011C80.8917 275.006 81.6994 275.813 82.6958 275.813Z" fill="#E4E4E4"/>
<path d="M82.6958 283.024H109.155C110.152 283.024 110.959 282.217 110.959 281.221C110.959 280.226 110.152 279.419 109.155 279.419H82.6958C81.6994 279.419 80.8917 280.226 80.8917 281.221C80.8917 282.217 81.6994 283.024 82.6958 283.024Z" fill="#E4E4E4"/>
<path d="M129.602 110.566C144.547 110.566 156.662 98.4593 156.662 83.5252C156.662 68.5911 144.547 56.4847 129.602 56.4847C114.656 56.4847 102.541 68.5911 102.541 83.5252C102.541 98.4593 114.656 110.566 129.602 110.566Z" fill="#6C63FF"/>
<path d="M129.601 55.8838C128.21 55.884 126.821 55.9884 125.446 56.1963C124.742 56.2984 124.057 56.4306 123.377 56.5928C118.385 57.7427 113.811 60.256 110.164 63.8523C106.518 67.4486 103.944 71.9865 102.728 76.9596C101.513 81.9328 101.704 87.1456 103.281 92.0165C104.857 96.8874 107.757 101.225 111.657 104.545C112.12 104.935 112.589 105.314 113.076 105.674C116.587 108.29 120.669 110.035 124.987 110.766C129.304 111.497 133.734 111.194 137.911 109.88C142.088 108.566 145.893 106.28 149.013 103.209C152.133 100.139 154.479 96.3718 155.858 92.2185C157.236 88.0651 157.608 83.6439 156.942 79.3189C156.277 74.9939 154.593 70.8887 152.029 67.341C149.466 63.7934 146.096 60.9048 142.196 58.9129C138.297 56.921 133.98 55.8828 129.601 55.8838ZM129.601 109.965C123.975 109.971 118.495 108.174 113.966 104.839C113.473 104.479 112.998 104.106 112.535 103.71C108.735 100.507 105.916 96.299 104.401 91.5685C102.885 86.838 102.735 81.7764 103.966 76.9643C105.198 72.1522 107.762 67.7845 111.365 64.362C114.967 60.9395 119.462 58.6009 124.334 57.6144C125.007 57.4762 125.68 57.368 126.366 57.2839C127.439 57.1511 128.52 57.0849 129.601 57.0856C136.619 57.0856 143.349 59.8712 148.311 64.8296C153.273 69.788 156.061 76.513 156.061 83.5253C156.061 90.5375 153.273 97.2625 148.311 102.221C143.349 107.179 136.619 109.965 129.601 109.965Z" fill="#E4E4E4"/>
<path d="M116.372 78.1171H142.831C143.828 78.1171 144.635 77.31 144.635 76.3144C144.635 75.3188 143.828 74.5117 142.831 74.5117H116.372C115.375 74.5117 114.567 75.3188 114.567 76.3144C114.567 77.31 115.375 78.1171 116.372 78.1171Z" fill="white"/>
<path d="M116.372 85.3279H142.831C143.828 85.3279 144.635 84.5208 144.635 83.5252C144.635 82.5296 143.828 81.7225 142.831 81.7225H116.372C115.375 81.7225 114.567 82.5296 114.567 83.5252C114.567 84.5208 115.375 85.3279 116.372 85.3279Z" fill="white"/>
<path d="M116.372 92.5387H142.831C143.828 92.5387 144.635 91.7316 144.635 90.736C144.635 89.7404 143.828 88.9333 142.831 88.9333H116.372C115.375 88.9333 114.567 89.7404 114.567 90.736C114.567 91.7316 115.375 92.5387 116.372 92.5387Z" fill="white"/>
<path d="M285.534 312.2L278.598 309.704L284.933 281.782L295.17 285.466L285.534 312.2Z" fill="#FFB6B6"/>
<path d="M286.345 309.938L279.135 307.343L274.456 305.66C273.313 305.248 272.1 305.066 270.886 305.123C269.672 305.18 268.482 305.475 267.382 305.991C266.283 306.508 265.296 307.236 264.478 308.134C263.66 309.032 263.027 310.082 262.615 311.224L262.513 311.507L284.884 319.553L288.119 310.575L286.345 309.938Z" fill="#2F2E41"/>
<path d="M395.973 302.332L389.613 306.057L372.204 283.317L381.591 277.819L395.973 302.332Z" fill="#FFB6B6"/>
<path d="M396.381 299.309L394.757 300.258L388.142 304.134L383.855 306.646C382.806 307.259 381.889 308.073 381.155 309.041C380.421 310.008 379.886 311.111 379.579 312.286C379.273 313.461 379.201 314.685 379.368 315.887C379.535 317.09 379.938 318.248 380.553 319.295L380.704 319.553L401.21 307.541L396.381 299.309Z" fill="#2F2E41"/>
<path d="M327.862 75.6245C336.01 75.6245 342.616 69.0238 342.616 60.8813C342.616 52.7389 336.01 46.1381 327.862 46.1381C319.713 46.1381 313.107 52.7389 313.107 60.8813C313.107 69.0238 319.713 75.6245 327.862 75.6245Z" fill="#FFB6B6"/>
<path d="M333.568 80.9241L330.477 81.7876L319.63 89.5342L307.89 103.348C307.89 103.348 303.675 111.247 305.256 120.198C306.836 129.149 310.302 147.795 310.302 147.795C310.302 147.795 339.022 147.599 340.076 146.019C341.13 144.439 341.472 137.264 341.472 137.264L345.687 90.4019C345.687 90.4019 340.945 82.5037 338.31 82.5037C336.61 82.4464 334.962 81.8978 333.568 80.9241Z" fill="#6C63FF"/>
<path d="M340.677 145.418C340.677 145.418 335.149 145.689 331.46 146.742C327.771 147.795 309.248 146.742 309.248 146.742L299.317 186.233L279.94 297.446L294.974 300.45L321.434 219.93L334.664 245.167L376.157 290.836L387.583 283.625L353.306 229.544L345.687 188.339C345.687 188.339 352.538 165.171 343.053 150.954L340.677 145.418Z" fill="#2F2E41"/>
<path opacity="0.2" d="M330.205 107.927L324.936 146.891L319.409 147.179L330.205 107.927Z" fill="black"/>
<path d="M308.805 151.427C310.466 151.427 311.812 149.813 311.812 147.822C311.812 145.83 310.466 144.216 308.805 144.216C307.145 144.216 305.798 145.83 305.798 147.822C305.798 149.813 307.145 151.427 308.805 151.427Z" fill="#2F2E41"/>
<path d="M323.825 197.563C324.452 196.94 324.934 196.187 325.238 195.357C325.542 194.528 325.661 193.642 325.585 192.762C325.509 191.882 325.241 191.029 324.8 190.263C324.359 189.498 323.755 188.838 323.031 188.331L328.916 167.679L318.266 171.036L314.311 190.133C313.539 191.405 313.261 192.915 313.529 194.378C313.797 195.841 314.593 197.155 315.765 198.071C316.938 198.987 318.406 199.441 319.892 199.347C321.377 199.253 322.777 198.619 323.825 197.563Z" fill="#FFB6B6"/>
<path d="M335.662 83.7868C335.662 83.7868 342.758 80.7173 347.067 88.4451C351.375 96.173 345.157 123.032 344.285 127.391C343.413 131.75 324.44 186.88 324.44 186.88L314.217 183.275L335.662 83.7868Z" fill="#6C63FF"/>
<path d="M346.123 36.75C346.749 37.6917 347.099 38.7897 347.134 39.92C347.169 41.0502 346.887 42.1676 346.319 43.146C345.699 42.0411 344.705 41.1936 343.515 40.7562C342.325 40.3188 341.018 40.32 339.829 40.7598C338.64 41.1996 337.647 42.049 337.029 43.1551C336.411 44.2612 336.209 45.5514 336.458 46.7936C329.291 43.6611 325.79 42.0293 318.339 44.4055C316.645 44.8951 315.044 45.6586 313.598 46.6658C312.051 47.8402 310.845 49.4059 310.105 51.2014C309.365 52.9969 309.118 54.9571 309.389 56.8798C313.92 56.5312 313.64 57.3842 318.17 57.0355L317.962 56.554C319.776 59.8722 320.591 63.6437 320.31 67.4142C320.028 71.1847 318.662 74.7936 316.376 77.8063C315.709 78.5455 315.14 79.3664 314.681 80.2491C314.456 80.6942 314.353 81.1906 314.382 81.6882C314.41 82.1859 314.57 82.6671 314.844 83.0835C315.287 83.5728 315.861 83.9235 316.499 84.0934C317.891 84.5624 319.364 84.7445 320.829 84.6288C322.294 84.5131 323.72 84.102 325.021 83.4203C326.323 82.7385 327.472 81.8003 328.4 80.6623C329.329 79.5243 330.017 78.21 330.423 76.799C330.317 79.1482 330.436 81.9533 332.428 83.2051C333.573 83.9245 335.019 83.8882 336.37 83.8281C339.923 83.6702 343.475 83.5124 347.028 83.3545C345.689 82.5776 345.173 80.8451 345.331 79.306C345.49 77.7669 346.184 76.3439 346.752 74.9042C349.902 66.9082 347.514 58.4412 343.083 51.0766C346.463 51.2258 351.313 47.4632 351.675 44.1014C351.801 42.4112 351.307 40.733 350.285 39.3801C349.263 38.0273 347.784 37.0924 346.123 36.75Z" fill="#2F2E41"/>
<path d="M437 319.654H0V321H437V319.654Z" fill="#CACACA"/>
</g>
<defs>
<clipPath id="clip0_442_1764">
<rect width="437" height="321" fill="white"/>
</clipPath>
</defs>
</svg>
