<svg width="391" height="337" viewBox="0 0 391 337" fill="none" xmlns="http://www.w3.org/2000/svg">
<g clip-path="url(#clip0_442_1648)">
<path d="M0 333.587C0 334.079 0.394996 334.474 0.886868 334.474H390.113C390.605 334.474 391 334.079 391 333.587C391 333.095 390.605 332.7 390.113 332.7H0.886868C0.394991 332.7 0 333.095 0 333.587Z" fill="#3F3C57"/>
<path d="M126.993 35.8146L131.226 55.1314L122.223 82.0186L107.718 53.1305L109.73 36.3713L126.993 35.8146Z" fill="#FDB4B4"/>
<path d="M132.012 54.131H106.968V84.3947H132.012V54.131Z" fill="#6C63FF"/>
<path d="M121.714 45.5448C131.16 45.5448 138.817 37.8864 138.817 28.4392C138.817 18.992 131.16 11.3336 121.714 11.3336C112.267 11.3336 104.61 18.992 104.61 28.4392C104.61 37.8864 112.267 45.5448 121.714 45.5448Z" fill="#FDB4B4"/>
<path d="M106.826 41.159C106.826 41.159 94.0764 17.6108 105.571 6.27881C117.066 -5.05317 126.294 2.4139 126.294 2.4139L131.563 2.20092C131.563 2.20092 132.662 6.3482 134.434 4.1031C136.206 1.85801 139.408 10.0344 139.408 10.0344C145.352 20.7391 124.748 23.1372 124.748 23.1372C124.748 23.1372 126.236 27.8769 124.724 28.8696C123.212 29.8622 119.171 33.5962 119.171 33.5962L115.555 36.3278L113.406 33.053C113.406 33.053 111.161 31.2807 110.027 32.0252C108.893 32.7697 110.453 42.5649 110.453 42.5649L106.826 41.159Z" fill="#2E2E41"/>
<path d="M86.3073 214.399L79.7681 311.953L95.8436 312.498L117.096 215.216L86.3073 214.399Z" fill="#2E2E41"/>
<path d="M125.27 213.854L118.731 311.408L134.806 311.953L156.059 214.671L125.27 213.854Z" fill="#2E2E41"/>
<path d="M82.3696 236.687L90.9274 130.437L77.8036 75.1106C76.6722 66.8862 81.8536 59.1043 89.8505 56.9823L102.692 53.575L108.376 47.8902L121.305 76.4433L129.379 47.912L135.676 52.4922L154.352 60.7328L154.344 60.9258L151.348 127.76L158.035 235.741L157.739 235.745L82.3696 236.687Z" fill="#E8E9EA"/>
<path d="M133.774 310.844L138.429 324.741C138.429 324.741 156.639 327.218 156.923 332.856C157.206 338.494 132.174 335.23 117.516 335.967C102.858 336.704 115.06 320.829 115.06 320.829L116.622 311.706L133.774 310.844Z" fill="#2E2E41"/>
<path d="M95.761 309.844L100.416 323.741C100.416 323.741 118.626 326.217 118.909 331.855C119.193 337.494 94.1606 334.23 79.5028 334.967C64.845 335.703 77.0465 319.828 77.0465 319.828L78.6085 310.706L95.761 309.844Z" fill="#2E2E41"/>
<path d="M73.0516 180.259C72.8542 177.519 73.316 174.771 74.3983 172.246L70.9243 143.745L84.5328 142.489L86.5912 171.535C87.9588 173.917 88.7362 176.591 88.8585 179.335C89.2587 186.197 86.0446 191.965 81.6792 192.22C77.3137 192.474 73.4508 187.119 73.0516 180.259Z" fill="#FDB4B4"/>
<path d="M159.244 184.443C159.077 181.7 159.568 178.958 160.678 176.445L157.515 147.908L171.137 146.8L172.878 175.867C174.22 178.263 174.968 180.946 175.06 183.691C175.386 190.557 172.109 196.289 167.741 196.496C163.373 196.704 159.569 191.307 159.244 184.443Z" fill="#FDB4B4"/>
<path d="M70.8683 168.829L70.8223 168.583L63.73 130.525L72.1103 68.552C72.858 63.0191 77.798 59.0334 83.3686 59.4789C86.2778 59.7118 88.8879 61.0917 90.7189 63.365C92.5496 65.6383 93.3417 68.4831 92.9492 71.3755L86.6419 117.855L90.613 167.568L70.8683 168.829Z" fill="#E8E9EA"/>
<path d="M155.041 167.936L140.782 72.7433C140.041 69.952 140.474 67.0309 142.01 64.5487C143.545 62.0664 145.964 60.3739 148.822 59.7827C154.29 58.6517 159.69 61.9945 161.117 67.3918L174.816 166.74L155.041 167.936Z" fill="#E8E9EA"/>
<path d="M121.723 85.145C122.69 85.145 123.473 84.3611 123.473 83.3942C123.473 82.4273 122.69 81.6434 121.723 81.6434C120.756 81.6434 119.972 82.4273 119.972 83.3942C119.972 84.3611 120.756 85.145 121.723 85.145Z" fill="#D6D7D8"/>
<path d="M121.723 98.401C122.69 98.401 123.473 97.6171 123.473 96.6502C123.473 95.6833 122.69 94.8994 121.723 94.8994C120.756 94.8994 119.972 95.6833 119.972 96.6502C119.972 97.6171 120.756 98.401 121.723 98.401Z" fill="#D6D7D8"/>
<path d="M121.723 111.657C122.69 111.657 123.473 110.873 123.473 109.906C123.473 108.939 122.69 108.155 121.723 108.155C120.756 108.155 119.972 108.939 119.972 109.906C119.972 110.873 120.756 111.657 121.723 111.657Z" fill="#D6D7D8"/>
<path d="M121.723 124.913C122.69 124.913 123.473 124.129 123.473 123.162C123.473 122.195 122.69 121.411 121.723 121.411C120.756 121.411 119.972 122.195 119.972 123.162C119.972 124.129 120.756 124.913 121.723 124.913Z" fill="#D6D7D8"/>
<path d="M121.723 138.169C122.69 138.169 123.473 137.385 123.473 136.418C123.473 135.451 122.69 134.667 121.723 134.667C120.756 134.667 119.972 135.451 119.972 136.418C119.972 137.385 120.756 138.169 121.723 138.169Z" fill="#D6D7D8"/>
<path d="M121.723 151.425C122.69 151.425 123.473 150.641 123.473 149.674C123.473 148.707 122.69 147.923 121.723 147.923C120.756 147.923 119.972 148.707 119.972 149.674C119.972 150.641 120.756 151.425 121.723 151.425Z" fill="#D6D7D8"/>
<path d="M121.723 164.681C122.69 164.681 123.473 163.897 123.473 162.93C123.473 161.963 122.69 161.179 121.723 161.179C120.756 161.179 119.972 161.963 119.972 162.93C119.972 163.897 120.756 164.681 121.723 164.681Z" fill="#D6D7D8"/>
<path d="M121.723 177.937C122.69 177.937 123.473 177.153 123.473 176.186C123.473 175.219 122.69 174.435 121.723 174.435C120.756 174.435 119.972 175.219 119.972 176.186C119.972 177.153 120.756 177.937 121.723 177.937Z" fill="#D6D7D8"/>
<path d="M121.725 188.191L88.6016 183.777L87.9637 183.692L71.0351 144.654L60.9536 121.412H87.2129L121.725 188.191Z" fill="#6C63FF"/>
<path d="M254.532 40.0616L275.591 28.5237V61.4892H251.235L254.532 40.0616Z" fill="#2E2E41"/>
<path d="M280.106 47.4113L282.049 63.5954L268.042 91.4922L259.348 65.5277L263.435 46.8737L280.106 47.4113Z" fill="#FDB4B4"/>
<path d="M282.774 64.5616H258.588V93.7868H282.774V64.5616Z" fill="#6C63FF"/>
<path d="M302.725 219.33L309.04 313.537L293.516 314.063L272.993 220.12L302.725 219.33Z" fill="#2E2E41"/>
<path d="M265.099 218.804L271.414 313.01L255.89 313.537L235.367 219.593L265.099 218.804Z" fill="#2E2E41"/>
<path d="M319.127 239.311L318.757 239.31L219.862 238.987L219.951 238.637L245.376 137.889L239.007 87.0449C237.8 77.4106 242.957 68.3042 251.839 64.3852L255.046 62.9706L261.138 58.54L268.931 86.0801L281.41 58.5185L286.908 64.0158L299.306 67.3057C307.034 69.356 312.04 76.8756 310.952 84.7967L310.938 84.8518L292.005 138.883L319.127 239.311Z" fill="#E8E9EA"/>
<path d="M256.887 312.466L273.451 313.299L274.96 322.108C274.96 322.108 286.742 337.438 272.588 336.727C258.433 336.015 234.259 339.167 234.533 333.722C234.807 328.278 252.392 325.886 252.392 325.886L256.887 312.466Z" fill="#2E2E41"/>
<path d="M293.596 311.5L310.16 312.332L311.668 321.142C311.668 321.142 323.451 336.472 309.296 335.761C295.141 335.049 270.968 338.201 271.242 332.756C271.515 327.311 289.101 324.92 289.101 324.92L293.596 311.5Z" fill="#2E2E41"/>
<path d="M308.764 185.396C308.379 192.021 304.648 197.192 300.433 196.946C296.217 196.7 293.113 191.13 293.5 184.503C293.618 181.853 294.369 179.271 295.689 176.971L297.677 148.921L310.819 150.135L307.464 177.658C308.509 180.096 308.955 182.75 308.764 185.396Z" fill="#FDB4B4"/>
<path d="M241.231 182.876C240.705 189.492 236.865 194.582 232.656 194.247C228.446 193.911 225.462 188.277 225.989 181.659C226.164 179.013 226.969 176.447 228.338 174.175L230.923 146.174L244.036 147.667L240.096 175.113C241.089 177.573 241.478 180.235 241.231 182.876Z" fill="#FDB4B4"/>
<path d="M310.881 174.368L291.795 173.15L291.818 172.863L295.631 125.133L289.54 80.2495C289.161 77.4539 289.926 74.704 291.696 72.5068C293.465 70.3093 295.988 68.9754 298.801 68.7502C304.185 68.3257 308.96 72.1724 309.683 77.5203L317.776 137.369L317.767 137.413L310.881 174.368Z" fill="#E8E9EA"/>
<path d="M244.409 172.54L225.292 171.384L225.334 171.082L238.516 75.4664C239.903 70.215 245.124 66.9849 250.407 68.0776C253.17 68.649 255.508 70.285 256.992 72.6846C258.476 75.0841 258.896 77.9073 258.173 80.6346L244.409 172.54Z" fill="#E8E9EA"/>
<path d="M268.525 94.5114C269.459 94.5114 270.216 93.7544 270.216 92.8206C270.216 91.8869 269.459 91.1299 268.525 91.1299C267.591 91.1299 266.834 91.8869 266.834 92.8206C266.834 93.7544 267.591 94.5114 268.525 94.5114Z" fill="#D6D7D8"/>
<path d="M268.525 107.312C269.459 107.312 270.216 106.556 270.216 105.622C270.216 104.688 269.459 103.931 268.525 103.931C267.591 103.931 266.834 104.688 266.834 105.622C266.834 106.556 267.591 107.312 268.525 107.312Z" fill="#D6D7D8"/>
<path d="M268.525 120.114C269.459 120.114 270.216 119.357 270.216 118.423C270.216 117.489 269.459 116.732 268.525 116.732C267.591 116.732 266.834 117.489 266.834 118.423C266.834 119.357 267.591 120.114 268.525 120.114Z" fill="#D6D7D8"/>
<path d="M268.525 132.915C269.459 132.915 270.216 132.158 270.216 131.224C270.216 130.29 269.459 129.533 268.525 129.533C267.591 129.533 266.834 130.29 266.834 131.224C266.834 132.158 267.591 132.915 268.525 132.915Z" fill="#D6D7D8"/>
<path d="M268.525 145.716C269.459 145.716 270.216 144.959 270.216 144.025C270.216 143.091 269.459 142.334 268.525 142.334C267.591 142.334 266.834 143.091 266.834 144.025C266.834 144.959 267.591 145.716 268.525 145.716Z" fill="#D6D7D8"/>
<path d="M268.525 158.517C269.459 158.517 270.216 157.76 270.216 156.826C270.216 155.893 269.459 155.136 268.525 155.136C267.591 155.136 266.834 155.893 266.834 156.826C266.834 157.76 267.591 158.517 268.525 158.517Z" fill="#D6D7D8"/>
<path d="M268.525 171.318C269.459 171.318 270.216 170.561 270.216 169.627C270.216 168.694 269.459 167.937 268.525 167.937C267.591 167.937 266.834 168.694 266.834 169.627C266.834 170.561 267.591 171.318 268.525 171.318Z" fill="#D6D7D8"/>
<path d="M268.525 184.119C269.459 184.119 270.216 183.362 270.216 182.429C270.216 181.495 269.459 180.738 268.525 180.738C267.591 180.738 266.834 181.495 266.834 182.429C266.834 183.362 267.591 184.119 268.525 184.119Z" fill="#D6D7D8"/>
<path d="M271.091 55.671C279.824 55.671 286.904 48.5908 286.904 39.8569C286.904 31.123 279.824 24.0428 271.091 24.0428C262.358 24.0428 255.279 31.123 255.279 39.8569C255.279 48.5908 262.358 55.671 271.091 55.671Z" fill="#FDB4B4"/>
<path d="M279.378 21.3959C280.136 22.9371 278.934 24.8623 277.344 25.5102C275.753 26.1582 273.957 25.8956 272.261 25.6259C270.565 25.3562 268.766 25.1004 267.18 25.7599C265.129 26.6131 263.972 28.7535 262.976 30.7396C261.115 34.4475 259.255 38.1553 257.394 41.8632C256.485 43.6747 255.556 45.5678 255.538 47.5946C255.506 51.3149 258.457 54.2881 260.045 57.6526C261.978 61.7492 261.819 66.7695 259.63 70.7352C257.44 74.7008 253.277 77.5106 248.781 78.0571C247.598 78.2009 246.346 78.1853 245.282 77.6478C244.219 77.1103 243.407 75.9365 243.604 74.761C243.989 72.462 247.502 71.9248 248.147 69.6847C248.484 68.5154 247.887 67.2666 247.083 66.3533C246.279 65.4399 245.262 64.7274 244.496 63.7827C242.727 61.6043 242.609 58.2414 244.221 55.9445C245.168 54.5947 246.633 53.5918 247.245 52.0606C247.767 50.7554 247.577 49.2883 247.38 47.8967C247.126 46.1085 246.872 44.3203 246.618 42.5321C246.322 40.4457 246.03 38.2846 246.616 36.2604C247.957 31.6215 253.194 29.4429 256.266 25.7168C257.693 23.9853 258.653 21.9029 260.117 20.2025C262.575 17.3491 266.443 15.7751 270.194 16.1023C273.945 16.4295 277.483 18.6496 279.409 21.8854" fill="#2E2E41"/>
<path d="M276.881 21.6884C276.109 21.9647 275.822 22.971 276.045 23.7608C276.267 24.5506 276.849 25.1782 277.382 25.802C283.41 32.8573 284.811 43.5292 280.809 51.9018C279.744 54.1288 278.326 56.2247 277.752 58.6254C277.334 60.3722 277.356 62.2883 276.388 63.8005C275.401 65.3401 273.446 66.3717 273.253 68.1901C273.129 69.357 273.84 70.4904 274.793 71.1746C275.747 71.8587 276.911 72.1717 278.056 72.4269C281.033 73.0903 284.077 73.4525 287.126 73.5061C288.12 73.5236 289.146 73.5021 290.058 73.1059C290.97 72.7098 291.748 71.8506 291.759 70.8563C291.767 70.0749 291.316 69.3539 291.259 68.5745C291.086 66.2391 294.229 64.9967 294.841 62.7364C295.243 61.2504 294.45 59.7213 293.605 58.4342C292.761 57.1472 291.797 55.7957 291.818 54.2563C291.837 52.7826 292.762 51.4847 293.122 50.0554C293.619 48.0783 293.008 46.0103 292.402 44.0637C291.887 42.4088 291.372 40.7539 290.857 39.099C290.31 37.3397 289.762 35.5805 289.215 33.8213C288.259 30.75 287.256 27.5898 285.188 25.1264C283.12 22.6631 279.693 21.0486 276.638 22.0544" fill="#2E2E41"/>
<path d="M287.657 82.9683L286.573 82.6524C288.831 74.9096 283.962 60.4605 283.913 60.3155L284.981 59.9511C285.188 60.5572 290.014 74.8865 287.657 82.9683Z" fill="#3F3C57"/>
<path d="M287.115 91.8618C289.719 91.8618 291.831 89.7503 291.831 87.1456C291.831 84.5409 289.719 82.4294 287.115 82.4294C284.511 82.4294 282.399 84.5409 282.399 87.1456C282.399 89.7503 284.511 91.8618 287.115 91.8618Z" fill="#3F3C57"/>
<path d="M256.13 103.842H253.27C252.958 103.842 252.706 103.59 252.706 103.278C252.706 102.966 252.958 102.713 253.27 102.713H256.13C256.918 102.713 257.659 102.406 258.215 101.848C258.771 101.291 259.077 100.549 259.076 99.7616L259.041 82.1444C259.041 78.3172 255.929 75.2046 252.103 75.2046C248.277 75.2046 245.165 78.3172 245.165 82.1433L245.199 98.6331C245.203 100.242 246.514 101.561 248.123 101.573L250.086 101.588C250.397 101.59 250.648 101.845 250.646 102.157C250.643 102.467 250.391 102.717 250.081 102.717H250.077L248.114 102.702C245.889 102.685 244.075 100.86 244.07 98.6353L244.036 82.1444C244.036 77.6948 247.655 74.0755 252.103 74.0755C256.551 74.0755 260.17 77.6948 260.17 82.1433L260.205 99.7594C260.207 100.849 259.784 101.874 259.014 102.646C258.245 103.417 257.22 103.842 256.13 103.842Z" fill="#3F3C57"/>
<path d="M250.081 104.153C251.186 104.153 252.082 103.257 252.082 102.152C252.082 101.047 251.186 100.151 250.081 100.151C248.976 100.151 248.081 101.047 248.081 102.152C248.081 103.257 248.976 104.153 250.081 104.153Z" fill="#3F3C57"/>
<path d="M253.27 105.279C254.375 105.279 255.27 104.383 255.27 103.278C255.27 102.173 254.375 101.277 253.27 101.277C252.165 101.277 251.269 102.173 251.269 103.278C251.269 104.383 252.165 105.279 253.27 105.279Z" fill="#3F3C57"/>
<path d="M137.772 74.5062L136.688 74.1903C138.946 66.4475 134.132 51.7745 134.083 51.6295L135.438 52.6508C135.644 53.257 140.129 66.4243 137.772 74.5062Z" fill="#3F3C57"/>
<path d="M99.6753 75.8818L100.759 75.5659C98.5012 67.8231 103.37 53.3739 103.419 53.2289L102.26 54.0056C102.053 54.6117 97.3182 67.7999 99.6753 75.8818Z" fill="#3F3C57"/>
<path d="M137.23 83.3996C139.834 83.3996 141.945 81.2881 141.945 78.6834C141.945 76.0788 139.834 73.9673 137.23 73.9673C134.625 73.9673 132.514 76.0788 132.514 78.6834C132.514 81.2881 134.625 83.3996 137.23 83.3996Z" fill="#3F3C57"/>
<path d="M104.703 104.884H101.843C101.531 104.884 101.279 104.632 101.279 104.32C101.279 104.008 101.531 103.755 101.843 103.755H104.703C105.491 103.755 106.232 103.448 106.789 102.89C107.345 102.333 107.651 101.592 107.649 100.804L107.614 83.1865C107.614 79.3594 104.502 76.2467 100.676 76.2467C96.8507 76.2467 93.7378 79.3594 93.7378 83.1854L93.7726 99.6752C93.7759 101.284 95.0873 102.603 96.6958 102.615L98.6588 102.63C98.9702 102.632 99.2211 102.887 99.2189 103.199C99.2166 103.509 98.9642 103.759 98.6544 103.759H98.65L96.687 103.744C94.4622 103.727 92.648 101.902 92.6436 99.6774L92.6089 83.1865C92.6089 78.7369 96.2278 75.1176 100.676 75.1176C105.124 75.1176 108.743 78.7369 108.743 83.1854L108.778 100.802C108.78 101.891 108.357 102.917 107.587 103.688C106.818 104.459 105.793 104.884 104.703 104.884Z" fill="#3F3C57"/>
<path d="M98.6545 105.195C99.7594 105.195 100.655 104.3 100.655 103.194C100.655 102.089 99.7594 101.194 98.6545 101.194C97.5495 101.194 96.6538 102.089 96.6538 103.194C96.6538 104.3 97.5495 105.195 98.6545 105.195Z" fill="#3F3C57"/>
<path d="M101.843 106.321C102.948 106.321 103.844 105.425 103.844 104.32C103.844 103.215 102.948 102.319 101.843 102.319C100.738 102.319 99.8423 103.215 99.8423 104.32C99.8423 105.425 100.738 106.321 101.843 106.321Z" fill="#3F3C57"/>
</g>
<defs>
<clipPath id="clip0_442_1648">
<rect width="391" height="337" fill="white"/>
</clipPath>
</defs>
</svg>
