<svg width="101" height="100" viewBox="0 0 101 100" fill="none" xmlns="http://www.w3.org/2000/svg">
<g clip-path="url(#clip0_460_125)">
<rect x="0.5" width="100" height="100" rx="50" fill="#007AFF" fill-opacity="0.15"/>
<path d="M47.4454 30.8617C46.9417 33.6186 44.5274 35.7083 41.6252 35.7083C38.3575 35.7083 35.7085 33.0593 35.7085 29.7917C35.7085 29.4016 35.7462 29.0203 35.8182 28.6513C38.0756 30.0211 40.0411 30.7932 42.0896 31.0735C43.8287 31.3116 45.5498 31.183 47.4454 30.8617Z" fill="#0D45ED"/>
<path d="M37.1069 25.9712C38.1922 24.689 39.8135 23.875 41.6249 23.875C44.2294 23.875 46.4409 25.558 47.2312 27.8957C45.3662 28.2279 43.9024 28.3358 42.4905 28.1426C40.8935 27.924 39.2485 27.3022 37.1069 25.9712Z" fill="#0D45ED"/>
<path d="M36.4479 37.1875C32.4014 37.1875 29.197 39.6573 27.1423 42.6468C25.0735 45.6571 23.875 49.5634 23.875 53.4163C23.875 55.4744 24.8287 57.8624 25.5031 59.3626C25.8772 60.1945 26.2485 60.9283 26.5255 61.4532C26.6477 61.6847 26.7528 61.8779 26.8333 62.0237V74.1667C26.8333 75.8006 28.1578 77.125 29.7917 77.125C31.4256 77.125 32.75 75.8006 32.75 74.1667V57.2212C33.1825 53.6594 34.1972 50.432 35.3581 47.7925L36.3296 51.5746C36.6657 52.8823 37.8445 53.7968 39.1949 53.7968H46.8021C48.436 53.7968 49.7604 52.4723 49.7604 50.8384C49.7604 49.2045 48.436 47.8801 46.8021 47.8801H41.4894L39.3132 39.4097C38.9771 38.1019 37.7982 37.1875 36.4479 37.1875Z" fill="#0D45ED"/>
<path d="M69.7292 41.625C72.9968 41.625 75.6458 38.976 75.6458 35.7083C75.6458 32.4407 72.9968 29.7917 69.7292 29.7917C66.4615 29.7917 63.8125 32.4407 63.8125 35.7083C63.8125 38.976 66.4615 41.625 69.7292 41.625Z" fill="#0D45ED"/>
<path fill-rule="evenodd" clip-rule="evenodd" d="M61.1821 41.6913C62.5465 41.3975 63.9305 42.097 64.503 43.3698L68.4198 52.0778H74.1667C75.8006 52.0778 77.125 53.4023 77.125 55.0362C77.125 56.6699 75.8006 57.9945 74.1667 57.9945H66.5067C65.3424 57.9945 64.2863 57.3116 63.8087 56.2497L61.6875 51.5336C61.0107 52.7801 60.565 53.9265 60.2835 55.1165C59.9883 56.3643 59.8575 57.7268 59.8806 59.3862C60.3592 59.5868 60.8886 59.7862 61.4552 59.9815C62.7617 60.4317 64.1074 60.8068 65.206 61.1015C65.3914 61.1513 65.576 61.2003 65.7535 61.2476L65.7552 61.2481C66.0804 61.3345 66.3823 61.4148 66.6226 61.4813C66.8117 61.5337 67.0078 61.5899 67.181 61.6457L67.1937 61.6497C67.2844 61.6782 67.6789 61.8023 68.0448 62.0251C68.5207 62.3147 68.8526 62.7104 68.9201 62.7908L68.9286 62.801C69.0669 62.963 69.2048 63.1423 69.3296 63.3105C69.5838 63.6532 69.8852 64.0885 70.2031 64.5611C70.8439 65.5135 71.6274 66.7305 72.3789 67.9154C73.1332 69.1047 73.8667 70.2802 74.411 71.157C74.6833 71.5957 74.9088 71.9606 75.0663 72.2159L75.3141 72.6186L72.7931 74.1667C75.3145 72.6192 75.3141 72.6186 75.3141 72.6186C76.1687 74.0111 75.7331 75.8334 74.3406 76.6881C72.9481 77.5426 71.1265 77.1067 70.2719 75.7142L70.0303 75.3218C69.8753 75.0704 69.6528 74.7104 69.3839 74.2772C68.8455 73.4098 68.1228 72.2517 67.3823 71.0842C66.6392 69.9123 65.8895 68.7489 65.2939 67.8636C65.0951 67.568 64.9214 67.3155 64.7763 67.1106C64.6277 67.0705 64.4636 67.0269 64.2812 66.9784C64.098 66.9297 63.8962 66.876 63.6729 66.8161C62.5446 66.5133 61.0364 66.0952 59.5277 65.5754L59.375 65.5224V77.125H56.4167V66.7708H40.1458V77.125H37.1875V62.3333H53.5077C53.3759 62.1999 53.2484 62.0597 53.1271 61.9127C52.5401 61.2009 51.9792 60.1739 51.9792 58.882C51.9792 51.9261 53.8547 47.6081 56.1399 44.9829C57.2642 43.6914 58.4229 42.8872 59.3538 42.3971C59.8173 42.1531 60.222 41.988 60.5358 41.8785C60.6929 41.8238 60.8278 41.7827 60.9366 41.7525C60.991 41.7374 61.0391 41.725 61.08 41.7149C61.1006 41.7099 61.1194 41.7055 61.1364 41.7015L61.1606 41.696L61.1717 41.6936L61.1771 41.6925C61.1771 41.6925 61.1821 41.6913 61.8051 44.5833L61.1821 41.6913ZM65.4238 67.297C65.4238 67.297 65.4041 67.2911 65.3732 67.2792C65.4097 67.2911 65.4238 67.297 65.4238 67.297ZM64.4432 66.6602C64.3938 66.608 64.3864 66.5929 64.4287 66.6424L64.4432 66.6602Z" fill="#0D45ED"/>
<path d="M49.7603 32.75C50.9856 32.75 51.979 31.0944 51.979 29.0521C51.979 27.0098 50.9856 25.3542 49.7603 25.3542C48.5349 25.3542 47.5415 27.0098 47.5415 29.0521C47.5415 31.0944 48.5349 32.75 49.7603 32.75Z" fill="#0D45ED"/>
<g clip-path="url(#clip1_460_125)">
<path d="M50.5669 -11.3118C84.3454 -11.3118 111.953 16.2408 111.953 50.1933C111.953 84.0374 84.4536 111.698 50.5669 111.698C16.6801 111.698 -10.8191 84.1459 -10.8191 50.1933C-10.8191 16.2408 16.6801 -11.3118 50.5669 -11.3118ZM50.5669 -12.3965C16.1388 -12.3965 -11.7935 15.5899 -11.7935 50.0849C-11.7935 84.5798 16.1388 112.566 50.5669 112.566C84.995 112.566 112.927 84.5798 112.927 50.0849C112.927 15.5899 84.995 -12.3965 50.5669 -12.3965Z" fill="#082D9B"/>
<path d="M50.5669 -11.3118C84.3454 -11.3118 111.953 16.2408 111.953 50.1933C111.953 84.0374 84.4536 111.698 50.5669 111.698C16.6801 111.698 -10.8191 84.1459 -10.8191 50.1933C-10.8191 16.2408 16.6801 -11.3118 50.5669 -11.3118ZM50.5669 -12.3965C16.1388 -12.3965 -11.7935 15.5899 -11.7935 50.0849C-11.7935 84.5798 16.1388 112.566 50.5669 112.566C84.995 112.566 112.927 84.5798 112.927 50.0849C112.927 15.5899 84.995 -12.3965 50.5669 -12.3965Z" fill="black" fill-opacity="0.2"/>
<path d="M50.5669 5.06802C75.3595 5.06802 95.4967 25.2443 95.4967 50.085C95.4967 74.9257 75.3595 95.1017 50.5669 95.1017C25.7744 95.1017 5.6372 74.9257 5.6372 50.085C5.6372 25.2443 25.6661 5.06802 50.5669 5.06802ZM50.5669 3.98328C25.1248 3.98328 4.44629 24.7019 4.44629 50.1934C4.44629 75.685 25.1248 96.4034 50.5669 96.4034C76.0091 96.4034 96.6876 75.685 96.6876 50.1934C96.5793 24.7019 75.9008 3.98328 50.5669 3.98328Z" fill="#082D9B"/>
<path d="M50.5 4.10329C75.4965 4.10329 95.7993 24.6245 95.7993 49.8898C95.7993 75.1551 75.4965 95.6761 50.5 95.6761C25.5035 95.6761 5.2007 75.1551 5.2007 49.8898C5.2007 24.6245 25.3944 4.10329 50.5 4.10329ZM50.5 3C24.8486 3 4 24.0728 4 50.0001C4 75.9274 24.8486 97 50.5 97C76.1514 97 97 75.9274 97 50.0001C96.8908 24.0728 76.0423 3 50.5 3Z" fill="#082D9B"/>
<path d="M50.5669 7.45424C74.1686 7.45424 93.2231 26.5458 93.2231 50.1932H115.634C115.634 14.1797 86.5107 -15 50.5669 -15C14.6231 -15 -14.5 14.1797 -14.5 50.1932H7.91074C7.91074 26.5458 26.9653 7.45424 50.5669 7.45424Z" fill="#082D9B"/>
<path d="M50.5669 7.45424C74.1686 7.45424 93.2231 26.5458 93.2231 50.1932H115.634C115.634 14.1797 86.5107 -15 50.5669 -15C14.6231 -15 -14.5 14.1797 -14.5 50.1932H7.91074C7.91074 26.5458 26.9653 7.45424 50.5669 7.45424Z" fill="#082D9B"/>
</g>
</g>
<defs>
<clipPath id="clip0_460_125">
<rect x="0.5" width="100" height="100" rx="50" fill="white"/>
</clipPath>
<clipPath id="clip1_460_125">
<rect width="131" height="128" fill="white" transform="translate(-14.5 -15)"/>
</clipPath>
</defs>
</svg>
