<svg width="101" height="100" viewBox="0 0 101 100" fill="none" xmlns="http://www.w3.org/2000/svg">
<g clip-path="url(#clip0_460_89)">
<rect x="0.5" width="100" height="100" rx="50" fill="#007AFF" fill-opacity="0.15"/>
<path d="M66.8954 71.4795C73.1226 66.6061 77.1249 59.0204 77.1249 50.5C77.1249 38.8785 69.6792 28.9961 59.2979 25.3629L60.2754 22.5699C71.8103 26.6068 80.0833 37.5873 80.0833 50.5C80.0833 59.9859 75.6185 68.4291 68.6759 73.8427L66.8954 71.4795Z" fill="#0D45ED"/>
<path d="M57.1061 76.299C54.9938 76.8383 52.7805 77.125 50.5002 77.125C48.2699 77.125 46.1038 76.8508 44.0336 76.3342L43.3301 79.2084C45.6257 79.78 48.0276 80.0833 50.5002 80.0833C53.0229 80.0833 55.4718 79.7675 57.8096 79.1734L57.1061 76.299Z" fill="#0D45ED"/>
<path d="M23.8748 50.5C23.8748 59.0629 27.9171 66.6816 34.1975 71.5521L32.4172 73.9152C25.4212 68.5046 20.9165 60.0283 20.9165 50.5C20.9165 37.5873 29.1895 26.6068 40.7243 22.5699L41.7019 25.3629C31.3205 28.9961 23.8748 38.8785 23.8748 50.5Z" fill="#0D45ED"/>
<path d="M57.1562 27.5729C57.1562 31.2491 54.1762 34.2292 50.5 34.2292C46.8238 34.2292 43.8438 31.2491 43.8438 27.5729C43.8438 23.9013 46.8166 20.924 50.4864 20.9167H50.5136C54.1834 20.924 57.1562 23.9013 57.1562 27.5729Z" fill="#0D45ED"/>
<path fill-rule="evenodd" clip-rule="evenodd" d="M38.6665 47.5417C39.7442 47.5417 40.7546 47.2535 41.6248 46.7502V53.4363L41.6247 53.4583V57.8958L41.6245 57.891L41.6238 57.8933L41.6214 57.9094C41.6115 57.9772 41.5741 58.2341 41.4373 58.7508C41.2814 59.3397 41.0472 60.0837 40.7474 60.9496C40.6946 61.1025 40.6399 61.2581 40.5838 61.4163C38.5766 62.3626 37.1873 64.4045 37.1873 66.7708C37.1873 67.5431 37.3353 68.2808 37.6043 68.957C37.1082 70.1352 36.6414 71.219 36.2546 72.1072C35.9456 72.8166 35.6883 73.3999 35.5088 73.8047C35.4188 74.0072 35.3486 74.165 35.3008 74.2717L35.2291 74.4319C34.604 75.8208 35.1359 77.4575 36.458 78.2138C37.7802 78.97 39.4605 78.5987 40.3409 77.3558L43.6662 72.6612C46.6703 72.3779 49.0207 69.8488 49.0207 66.7708C49.0207 66.2796 48.9608 65.8023 48.8479 65.3458L50.4998 63.0139L60.6588 77.3558C61.5392 78.5987 63.2195 78.97 64.5416 78.2137C65.8638 77.4575 66.3955 75.8208 65.7706 74.4319L65.6987 74.2717C65.6511 74.165 65.5807 74.0072 65.4909 73.8047C65.3112 73.3997 65.054 72.8166 64.745 72.1072C64.1265 70.6869 63.3037 68.767 62.4827 66.76C61.6588 64.746 60.8502 62.6772 60.2521 60.9496C59.9524 60.0837 59.7182 59.3397 59.5624 58.7508C59.4256 58.2341 59.3881 57.9772 59.3782 57.9094C59.3772 57.9023 59.3765 57.8972 59.3759 57.8942C59.3751 57.8892 59.3748 57.8899 59.3748 57.8958V54.146C61.1433 53.1229 62.3332 51.2109 62.3332 49.0208C62.3332 47.2537 61.5584 45.6674 60.3301 44.5833H68.2498C69.8837 44.5833 71.2082 43.2589 71.2082 41.625C71.2082 39.9911 69.8837 38.6667 68.2498 38.6667H43.7917C42.7687 36.8982 40.8566 35.7083 38.6665 35.7083C36.4764 35.7083 34.5643 36.8982 33.5413 38.6667H32.7498C31.1159 38.6667 29.7915 39.9911 29.7915 41.625C29.7915 43.2589 31.1159 44.5833 32.7498 44.5833H33.5413C34.5643 46.3518 36.4764 47.5417 38.6665 47.5417ZM41.6248 41.625C41.6248 43.2589 40.3004 44.5833 38.6665 44.5833C37.0326 44.5833 35.7082 43.2589 35.7082 41.625C35.7082 39.9911 37.0326 38.6667 38.6665 38.6667C40.3004 38.6667 41.6248 39.9911 41.6248 41.625ZM59.3748 49.0208C59.3748 50.6547 58.0504 51.9792 56.4165 51.9792C54.7826 51.9792 53.4582 50.6547 53.4582 49.0208C53.4582 47.3869 54.7826 46.0625 56.4165 46.0625C58.0504 46.0625 59.3748 47.3869 59.3748 49.0208ZM46.0623 66.7708C46.0623 68.4047 44.7379 69.7292 43.104 69.7292C41.4701 69.7292 40.1457 68.4047 40.1457 66.7708C40.1457 65.1369 41.4701 63.8125 43.104 63.8125C44.7379 63.8125 46.0623 65.1369 46.0623 66.7708Z" fill="#0D45ED"/>
<g clip-path="url(#clip1_460_89)">
<path d="M50.5669 -11.3118C84.3454 -11.3118 111.953 16.2408 111.953 50.1933C111.953 84.0374 84.4536 111.698 50.5669 111.698C16.6801 111.698 -10.8191 84.1459 -10.8191 50.1933C-10.8191 16.2408 16.6801 -11.3118 50.5669 -11.3118ZM50.5669 -12.3965C16.1388 -12.3965 -11.7935 15.5899 -11.7935 50.0849C-11.7935 84.5798 16.1388 112.566 50.5669 112.566C84.995 112.566 112.927 84.5798 112.927 50.0849C112.927 15.5899 84.995 -12.3965 50.5669 -12.3965Z" fill="#082D9B"/>
<path d="M50.5669 -11.3118C84.3454 -11.3118 111.953 16.2408 111.953 50.1933C111.953 84.0374 84.4536 111.698 50.5669 111.698C16.6801 111.698 -10.8191 84.1459 -10.8191 50.1933C-10.8191 16.2408 16.6801 -11.3118 50.5669 -11.3118ZM50.5669 -12.3965C16.1388 -12.3965 -11.7935 15.5899 -11.7935 50.0849C-11.7935 84.5798 16.1388 112.566 50.5669 112.566C84.995 112.566 112.927 84.5798 112.927 50.0849C112.927 15.5899 84.995 -12.3965 50.5669 -12.3965Z" fill="black" fill-opacity="0.2"/>
<path d="M50.5669 5.06801C75.3595 5.06801 95.4967 25.2443 95.4967 50.085C95.4967 74.9256 75.3595 95.1017 50.5669 95.1017C25.7744 95.1017 5.6372 74.9256 5.6372 50.085C5.6372 25.2443 25.6661 5.06801 50.5669 5.06801ZM50.5669 3.98327C25.1248 3.98327 4.44629 24.7019 4.44629 50.1934C4.44629 75.685 25.1248 96.4034 50.5669 96.4034C76.0091 96.4034 96.6876 75.685 96.6876 50.1934C96.5793 24.7019 75.9008 3.98327 50.5669 3.98327Z" fill="#082D9B"/>
<path d="M50.5 4.10329C75.4965 4.10329 95.7993 24.6245 95.7993 49.8898C95.7993 75.1551 75.4965 95.6761 50.5 95.6761C25.5035 95.6761 5.2007 75.1551 5.2007 49.8898C5.2007 24.6245 25.3944 4.10329 50.5 4.10329ZM50.5 3C24.8486 3 4 24.0728 4 50.0001C4 75.9274 24.8486 97 50.5 97C76.1514 97 97 75.9274 97 50.0001C96.8908 24.0728 76.0423 3 50.5 3Z" fill="#082D9B"/>
<path d="M50.5669 7.45424C74.1686 7.45424 93.2231 26.5458 93.2231 50.1932H115.634C115.634 14.1797 86.5107 -15 50.5669 -15C14.6231 -15 -14.5 14.1797 -14.5 50.1932H7.91074C7.91074 26.5458 26.9653 7.45424 50.5669 7.45424Z" fill="#082D9B"/>
<path d="M50.5669 7.45424C74.1686 7.45424 93.2231 26.5458 93.2231 50.1932H115.634C115.634 14.1797 86.5107 -15 50.5669 -15C14.6231 -15 -14.5 14.1797 -14.5 50.1932H7.91074C7.91074 26.5458 26.9653 7.45424 50.5669 7.45424Z" fill="#082D9B"/>
</g>
</g>
<defs>
<clipPath id="clip0_460_89">
<rect x="0.5" width="100" height="100" rx="50" fill="white"/>
</clipPath>
<clipPath id="clip1_460_89">
<rect width="131" height="128" fill="white" transform="translate(-14.5 -15)"/>
</clipPath>
</defs>
</svg>
