<svg width="101" height="100" viewBox="0 0 101 100" fill="none" xmlns="http://www.w3.org/2000/svg">
<g clip-path="url(#clip0_460_12)">
<rect x="0.5" width="100" height="100" rx="50" fill="#007AFF" fill-opacity="0.15"/>
<path fill-rule="evenodd" clip-rule="evenodd" d="M53.4038 47.5704H48.611V46.1702H50.1783C51.2347 46.1702 52.2481 45.7738 52.9971 45.0675C53.7462 44.361 54.1701 43.4022 54.176 42.4005V39.9232C54.176 40.026 54.8229 39.9654 55.1332 39.9361C55.2129 39.9287 55.2705 39.9232 55.2891 39.9232C55.5658 39.8811 55.8163 39.7434 55.9924 39.5366C56.1686 39.3298 56.2578 39.0686 56.243 38.803C56.1759 38.4034 56.0377 38.0173 55.8342 37.6614L55.2891 36.3473C54.9029 35.4427 54.5168 34.5379 54.1534 33.6116C54.1534 33.6116 53.9262 31.4575 53.7218 30.7252C53.0881 28.755 51.8079 27.0282 50.0675 25.7961C48.327 24.564 46.2172 23.8909 44.0454 23.875C41.9438 23.8714 39.8933 24.4906 38.1809 25.6459C36.4683 26.8013 35.1792 28.4352 34.4936 30.3193C33.808 32.2034 33.7603 34.2435 34.357 36.1547C34.9535 38.0658 36.165 39.7524 37.8216 40.9788V47.5704H33.6422C31.0966 47.564 28.6494 48.5025 26.8241 50.1852C24.9988 51.8679 23.9403 54.1612 23.875 56.5746V77.125H63.807V57.9748C63.8523 56.6419 63.6184 55.3138 63.1188 54.0672C62.619 52.8207 61.8635 51.6805 60.8959 50.7129C59.9284 49.745 58.7679 48.9691 57.4818 48.4296C56.1958 47.8903 54.8097 47.5982 53.4038 47.5704ZM45.8513 62.3277C45.7497 62.3231 45.6149 62.3147 45.4571 62.2995C45.1249 62.2671 44.657 62.2008 44.1692 62.0585C43.85 61.9653 43.4719 61.8255 43.1042 61.6078C42.7364 61.8255 42.3584 61.9653 42.0392 62.0585C41.5513 62.2008 41.0835 62.2671 40.7513 62.2995C40.5814 62.3159 40.4384 62.3243 40.3346 62.3287C40.2824 62.3308 40.2396 62.332 40.2078 62.3326L40.2016 62.3327C40.2991 65.0988 40.3402 68.685 38.7505 70.2704C36.6652 72.3501 32.4944 73.39 30.4091 71.6568C28.3237 69.9237 31.7993 52.9393 36.6652 52.9393C40.0417 52.9393 40.1651 56.9947 40.1479 59.3749H40.1503L40.1861 59.3738L40.2114 59.3729C40.2693 59.3706 40.3574 59.3654 40.4649 59.355C40.6874 59.3333 40.9591 59.2919 41.2108 59.2185C41.4231 59.1565 41.5549 59.0909 41.625 59.0448V54.9067V52.8535V52.6622V52.5741V52.4911V52.3416V52.333V52.3246V52.3078V52.2756V52.2448V52.2155V52.1147V52.1092V52.1039V52.0987V52.0935V52.0885V52.0836V52.0789V52.0741V52.0564V52.0522V52.0482V52.0443V52.0406V52.0139V52.0111V52.0085V52.0059V52.0034V52.0011V51.9988V51.9968V51.9948V51.9929V51.9911V51.9895V51.9866V51.9842V51.9821V51.9806L43.1042 51.9792H44.5833V51.9814V51.9832V51.9854V51.988V51.9911V51.9929V51.9948V51.9968V51.9988V52.0011V52.0034V52.0059V52.0085V52.0111V52.0139V52.0406V52.0443V52.0482V52.0522V52.0564V52.0741V52.0789V52.0836V52.0885V52.0935V52.0987V52.1039V52.1092V52.1147V52.2155V52.2448V52.2756V52.3078V52.3246V52.333V52.3416V52.4911V52.5741V52.6622V52.8535V54.9067V59.0448C44.6534 59.0909 44.7852 59.1565 44.9975 59.2185C45.2493 59.2919 45.521 59.3333 45.7434 59.355C45.8041 59.3608 45.8585 59.3651 45.9048 59.368C45.8878 56.9869 46.0141 52.9393 49.3875 52.9393C54.2534 52.9393 57.729 69.9237 55.6437 71.6568C53.5582 73.39 49.3875 72.3501 47.302 70.2704C45.7115 68.6841 45.7537 65.0945 45.8513 62.3277ZM40.1445 59.7316L40.1457 59.6211L40.1458 60.6613C40.1427 60.5067 40.1408 60.3588 40.1408 60.2184C40.1408 60.0709 40.1426 59.9075 40.1445 59.7316ZM51.9792 41.625C51.9792 42.4419 51.3169 43.1042 50.5 43.1042C49.6831 43.1042 49.0208 42.4419 49.0208 41.625C49.0208 40.8081 49.6831 40.1458 50.5 40.1458C51.3169 40.1458 51.9792 40.8081 51.9792 41.625ZM46.0625 41.625C46.8794 41.625 47.5417 40.9628 47.5417 40.1458C47.5417 39.3289 46.8794 38.6667 46.0625 38.6667C45.2456 38.6667 44.5833 39.3289 44.5833 40.1458C44.5833 40.9628 45.2456 41.625 46.0625 41.625Z" fill="#0D45ED"/>
<path d="M62.3333 35.7083C62.3333 36.5253 61.6711 37.1875 60.8542 37.1875C60.0372 37.1875 59.375 36.5253 59.375 35.7083C59.375 34.8914 60.0372 34.2292 60.8542 34.2292C61.6711 34.2292 62.3333 34.8914 62.3333 35.7083Z" fill="#0D45ED"/>
<path d="M65.2918 40.1458C65.2918 40.9628 64.6296 41.625 63.8127 41.625C62.9957 41.625 62.3335 40.9628 62.3335 40.1458C62.3335 39.3289 62.9957 38.6667 63.8127 38.6667C64.6296 38.6667 65.2918 39.3289 65.2918 40.1458Z" fill="#0D45ED"/>
<path d="M68.2498 44.5833C68.2498 45.4003 67.5876 46.0625 66.7707 46.0625C65.9537 46.0625 65.2915 45.4003 65.2915 44.5833C65.2915 43.7664 65.9537 43.1042 66.7707 43.1042C67.5876 43.1042 68.2498 43.7664 68.2498 44.5833Z" fill="#0D45ED"/>
<path d="M77.1248 43.1042C77.1248 43.9211 76.4626 44.5833 75.6457 44.5833C74.8287 44.5833 74.1665 43.9211 74.1665 43.1042C74.1665 42.2872 74.8287 41.625 75.6457 41.625C76.4626 41.625 77.1248 42.2872 77.1248 43.1042Z" fill="#0D45ED"/>
<path d="M77.1248 35.7083C77.1248 36.5253 76.4626 37.1875 75.6457 37.1875C74.8287 37.1875 74.1665 36.5253 74.1665 35.7083C74.1665 34.8914 74.8287 34.2292 75.6457 34.2292C76.4626 34.2292 77.1248 34.8914 77.1248 35.7083Z" fill="#0D45ED"/>
<path d="M77.1248 29.7917C77.1248 30.6086 76.4626 31.2708 75.6457 31.2708C74.8287 31.2708 74.1665 30.6086 74.1665 29.7917C74.1665 28.9748 74.8287 28.3125 75.6457 28.3125C76.4626 28.3125 77.1248 28.9748 77.1248 29.7917Z" fill="#0D45ED"/>
<path d="M71.2083 32.75C71.2083 33.567 70.5461 34.2292 69.7292 34.2292C68.9122 34.2292 68.25 33.567 68.25 32.75C68.25 31.9331 68.9122 31.2708 69.7292 31.2708C70.5461 31.2708 71.2083 31.9331 71.2083 32.75Z" fill="#0D45ED"/>
<path d="M71.2083 38.6667C71.2083 39.4836 70.5461 40.1458 69.7292 40.1458C68.9122 40.1458 68.25 39.4836 68.25 38.6667C68.25 37.8497 68.9122 37.1875 69.7292 37.1875C70.5461 37.1875 71.2083 37.8497 71.2083 38.6667Z" fill="#0D45ED"/>
<path d="M59.3748 43.1042C59.3748 43.9211 58.7126 44.5833 57.8957 44.5833C57.0787 44.5833 56.4165 43.9211 56.4165 43.1042C56.4165 42.2872 57.0787 41.625 57.8957 41.625C58.7126 41.625 59.3748 42.2872 59.3748 43.1042Z" fill="#0D45ED"/>
<g clip-path="url(#clip1_460_12)">
<path d="M50.5669 -11.3118C84.3454 -11.3118 111.953 16.2408 111.953 50.1933C111.953 84.0374 84.4536 111.698 50.5669 111.698C16.6801 111.698 -10.8191 84.1459 -10.8191 50.1933C-10.8191 16.2408 16.6801 -11.3118 50.5669 -11.3118ZM50.5669 -12.3965C16.1388 -12.3965 -11.7935 15.5899 -11.7935 50.0849C-11.7935 84.5798 16.1388 112.566 50.5669 112.566C84.995 112.566 112.927 84.5798 112.927 50.0849C112.927 15.5899 84.995 -12.3965 50.5669 -12.3965Z" fill="#082D9B"/>
<path d="M50.5669 -11.3118C84.3454 -11.3118 111.953 16.2408 111.953 50.1933C111.953 84.0374 84.4536 111.698 50.5669 111.698C16.6801 111.698 -10.8191 84.1459 -10.8191 50.1933C-10.8191 16.2408 16.6801 -11.3118 50.5669 -11.3118ZM50.5669 -12.3965C16.1388 -12.3965 -11.7935 15.5899 -11.7935 50.0849C-11.7935 84.5798 16.1388 112.566 50.5669 112.566C84.995 112.566 112.927 84.5798 112.927 50.0849C112.927 15.5899 84.995 -12.3965 50.5669 -12.3965Z" fill="black" fill-opacity="0.2"/>
<path d="M50.5669 5.06802C75.3595 5.06802 95.4967 25.2443 95.4967 50.085C95.4967 74.9257 75.3595 95.1017 50.5669 95.1017C25.7744 95.1017 5.6372 74.9257 5.6372 50.085C5.6372 25.2443 25.6661 5.06802 50.5669 5.06802ZM50.5669 3.98328C25.1248 3.98328 4.44629 24.7019 4.44629 50.1934C4.44629 75.685 25.1248 96.4034 50.5669 96.4034C76.0091 96.4034 96.6876 75.685 96.6876 50.1934C96.5793 24.7019 75.9008 3.98328 50.5669 3.98328Z" fill="#082D9B"/>
<path d="M50.5 4.10329C75.4965 4.10329 95.7993 24.6245 95.7993 49.8898C95.7993 75.1551 75.4965 95.6761 50.5 95.6761C25.5035 95.6761 5.2007 75.1551 5.2007 49.8898C5.2007 24.6245 25.3944 4.10329 50.5 4.10329ZM50.5 3C24.8486 3 4 24.0728 4 50.0001C4 75.9274 24.8486 97 50.5 97C76.1514 97 97 75.9274 97 50.0001C96.8908 24.0728 76.0423 3 50.5 3Z" fill="#082D9B"/>
<path d="M50.5669 7.45424C74.1686 7.45424 93.2231 26.5458 93.2231 50.1932H115.634C115.634 14.1797 86.5107 -15 50.5669 -15C14.6231 -15 -14.5 14.1797 -14.5 50.1932H7.91074C7.91074 26.5458 26.9653 7.45424 50.5669 7.45424Z" fill="#082D9B"/>
<path d="M50.5669 7.45424C74.1686 7.45424 93.2231 26.5458 93.2231 50.1932H115.634C115.634 14.1797 86.5107 -15 50.5669 -15C14.6231 -15 -14.5 14.1797 -14.5 50.1932H7.91074C7.91074 26.5458 26.9653 7.45424 50.5669 7.45424Z" fill="#082D9B"/>
</g>
</g>
<defs>
<clipPath id="clip0_460_12">
<rect x="0.5" width="100" height="100" rx="50" fill="white"/>
</clipPath>
<clipPath id="clip1_460_12">
<rect width="131" height="128" fill="white" transform="translate(-14.5 -15)"/>
</clipPath>
</defs>
</svg>
