<svg width="437" height="304" viewBox="0 0 437 304" fill="none" xmlns="http://www.w3.org/2000/svg">
<g clip-path="url(#clip0_442_1271)">
<path d="M365.129 46.7446L331.418 47.0728C329.834 39.2767 324.51 18.821 329.305 13.2415C329.523 11.1415 330.544 9.2067 332.154 7.83979C333.764 6.47287 335.839 5.77921 337.948 5.90319C343.173 -2.27085 351.876 -1.04357 357.758 4.06148C363.678 6.10292 365.91 9.72967 365.13 14.6513C369.514 18.4866 370.322 23.1527 368.354 28.4642L365.129 46.7446Z" fill="#2F2E41"/>
<path d="M361.884 67.4992L337.563 64.1336L332.698 57.0284C339.399 52.5863 341.77 46.3819 338.685 37.9566L355.523 37.5826C354.734 45.0855 357.217 50.8947 364.129 54.4107L361.884 67.4992Z" fill="#FFB9B9"/>
<path d="M331.812 286.744L330.882 299.45C330.84 300.025 330.922 300.603 331.121 301.144C331.321 301.685 331.634 302.177 332.039 302.587C332.445 302.998 332.933 303.317 333.472 303.523C334.011 303.729 334.588 303.817 335.164 303.783L341.694 303.387C341.997 303.369 342.291 303.284 342.558 303.139C342.824 302.994 343.055 302.792 343.234 302.548C343.413 302.303 343.536 302.023 343.595 301.725C343.653 301.428 343.645 301.121 343.572 300.828L339.947 286.337L331.812 286.744Z" fill="#E6E6E6"/>
<path d="M352.954 286.337L349.329 300.828C349.256 301.121 349.248 301.428 349.306 301.725C349.365 302.023 349.488 302.303 349.667 302.548C349.846 302.792 350.077 302.994 350.343 303.139C350.609 303.284 350.904 303.369 351.207 303.387L357.737 303.782C358.313 303.817 358.89 303.729 359.429 303.523C359.968 303.316 360.456 302.998 360.862 302.587C361.267 302.177 361.58 301.685 361.78 301.144C361.979 300.602 362.061 300.025 362.018 299.45L361.088 286.744L352.954 286.337Z" fill="#E6E6E6"/>
<path d="M361.51 288.508L352.697 287.624L343.924 193.897L340.608 287.322L331.95 287.012L317.357 157.623H373.109L361.51 288.508Z" fill="#6C63FF"/>
<path d="M348.04 43.9399C357.339 43.9399 364.878 36.4057 364.878 27.1119C364.878 17.818 357.339 10.2838 348.04 10.2838C338.74 10.2838 331.202 17.818 331.202 27.1119C331.202 36.4057 338.74 43.9399 348.04 43.9399Z" fill="#FFB9B9"/>
<path d="M381.342 160.614L313.241 161.362C323.348 122.911 329.393 87.1929 318.854 62.6377L335.692 54.4107C343.811 62.8739 352.853 62.0014 362.633 53.6628L378.722 57.7763C375.967 89.9766 377.202 124.463 381.342 160.614Z" fill="#6C63FF"/>
<path d="M294.532 120.975L336.814 137.803L346.268 140.582C346.691 140.706 347.134 140.744 347.572 140.692C348.01 140.641 348.432 140.502 348.815 140.283C349.197 140.064 349.532 139.77 349.798 139.419C350.064 139.068 350.256 138.666 350.363 138.239C350.55 137.49 350.466 136.698 350.125 136.005C349.785 135.312 349.209 134.762 348.501 134.452L338.685 131.446L309.125 114.244L315.299 97.9767L302.39 91.0585L294.532 120.975Z" fill="#FFB9B9"/>
<path d="M294.906 90.3105C302.951 93.4471 309.349 98.8001 314.364 106.017L330.079 83.2054L318.854 62.6378L294.906 90.3105Z" fill="#6C63FF"/>
<path d="M367.017 24.3845C360.183 22.6247 353.464 22.3831 346.932 24.6153C342.772 26.6292 337.775 26.4436 332.218 24.7843V7.99493L362.217 8.79443L367.017 24.3845Z" fill="#2F2E41"/>
<path d="M336.674 101.368C335.352 101.37 334.084 101.895 333.149 102.83C332.214 103.764 331.688 105.031 331.687 106.352L333.655 147.534C333.657 148.855 334.183 150.122 335.118 151.056C336.053 151.991 337.32 152.516 338.642 152.518H361.148C362.47 152.516 363.738 151.991 364.673 151.056C365.608 150.122 366.134 148.855 366.135 147.534L368.104 106.352C368.102 105.031 367.576 103.764 366.641 102.83C365.706 101.895 364.439 101.37 363.117 101.368H336.674Z" fill="#3F3D56"/>
<path d="M400.529 117.864L363.674 132.53L360.894 133.637C360.805 133.671 360.717 133.701 360.623 133.73L351.307 136.47C350.117 136.819 348.468 135.216 347.503 134.109C347.026 133.576 346.755 132.889 346.741 132.173C346.726 131.458 346.969 130.761 347.425 130.209C347.553 130.06 347.695 129.924 347.848 129.801C348.207 129.521 348.63 129.335 349.078 129.26L358.384 127.43C358.718 127.364 359.039 127.245 359.334 127.076L363.674 124.548L386.208 111.436C386.835 111.072 387.312 110.497 387.555 109.814C387.797 109.132 387.789 108.385 387.532 107.708L383.231 96.3712C382.967 95.6775 382.965 94.9117 383.225 94.2166C383.485 93.5215 383.989 92.9447 384.644 92.594L391.769 88.7774C392.177 88.5589 392.628 88.4357 393.09 88.4169C393.552 88.3981 394.012 88.4843 394.435 88.669C394.859 88.8537 395.235 89.132 395.535 89.483C395.835 89.8341 396.052 90.2486 396.169 90.6955L402.355 114.244C402.545 114.966 402.464 115.733 402.128 116.4C401.792 117.066 401.223 117.587 400.529 117.864Z" fill="#FFB9B9"/>
<path d="M402.67 86.197C394.625 89.3335 388.227 94.6866 383.213 101.903L367.497 79.0918L378.722 57.7763L402.67 86.197Z" fill="#6C63FF"/>
<path d="M359.245 42.0897C351.879 45.1518 344.155 45.0275 336.116 42.0897C338.455 38.099 334.958 34.9735 333.163 30.945L363.182 30.0535C360.887 33.5531 357.499 37.6879 359.245 42.0897Z" fill="white"/>
<path d="M362.865 30.7194L362.516 30.3717L363.008 29.8799L365.948 26.4509L366.322 26.7706L363.369 30.2133L362.865 30.7194Z" fill="white"/>
<path d="M331.106 28.635L330.791 29.013L333.744 31.4721L334.059 31.0941L331.106 28.635Z" fill="white"/>
<path d="M363.713 33.6108L358.544 41.7252L358.96 41.9893L364.128 33.875L363.713 33.6108Z" fill="white"/>
<path d="M331.649 33.6102L331.233 33.8743L336.401 41.9894L336.816 41.7253L331.649 33.6102Z" fill="white"/>
<path d="M364.659 123.852V132.762L361.555 133.998C361.456 134.036 361.357 134.069 361.253 134.102L350.854 137.16C349.525 137.549 347.685 135.76 346.608 134.525C346.075 133.929 345.773 133.163 345.757 132.364C345.741 131.565 346.012 130.787 346.52 130.171C346.664 130.005 346.822 129.853 346.993 129.715C347.394 129.404 347.865 129.196 348.366 129.111L358.754 127.069C359.126 126.996 359.484 126.863 359.814 126.674L364.659 123.852Z" fill="white"/>
<path d="M369.157 92.0706H367.378C367.378 66.9331 362.199 49.4152 357.153 49.4152L356.708 47.6379C361.234 47.6379 364.12 54.9287 365.743 61.0451C367.944 69.337 369.157 80.3554 369.157 92.0706Z" fill="#3F3D56"/>
<path d="M328.254 85.85H326.476C326.476 62.8281 331.691 48.5266 339.369 48.5266L338.925 50.3039C333.613 50.3039 328.254 61.2951 328.254 85.85Z" fill="#3F3D56"/>
<path d="M368.267 96.9582C370.723 96.9582 372.713 94.9689 372.713 92.5149C372.713 90.061 370.723 88.0717 368.267 88.0717C365.812 88.0717 363.821 90.061 363.821 92.5149C363.821 94.9689 365.812 96.9582 368.267 96.9582Z" fill="#3F3D56"/>
<path d="M321.141 96.5139H319.362C319.362 90.1438 322.952 84.9614 327.365 84.9614V86.7387C323.933 86.7387 321.141 91.1238 321.141 96.5139Z" fill="#3F3D56"/>
<path d="M335.368 96.5139H333.59C333.59 91.1238 330.797 86.7387 327.365 86.7387V84.9614C331.778 84.9614 335.368 90.1438 335.368 96.5139Z" fill="#3F3D56"/>
<path d="M334.479 98.7355C335.461 98.7355 336.257 97.9397 336.257 96.9582C336.257 95.9766 335.461 95.1808 334.479 95.1808C333.496 95.1808 332.7 95.9766 332.7 96.9582C332.7 97.9397 333.496 98.7355 334.479 98.7355Z" fill="#3F3D56"/>
<path d="M320.252 98.7355C321.234 98.7355 322.03 97.9397 322.03 96.9582C322.03 95.9766 321.234 95.1808 320.252 95.1808C319.269 95.1808 318.473 95.9766 318.473 96.9582C318.473 97.9397 319.269 98.7355 320.252 98.7355Z" fill="#3F3D56"/>
<path d="M105.938 37.2299L74.7056 42.5158C73.9341 42.6474 73.1411 42.4883 72.4802 42.0692C71.8193 41.6501 71.3375 41.0009 71.1279 40.2472C68.8714 32.1078 64.1536 21.4896 68.7341 16.1593C68.9674 13.9169 70.0572 11.8508 71.7764 10.3911C73.4957 8.93149 75.712 8.19076 77.9639 8.32314C83.5434 -0.405442 92.8369 0.9051 99.1181 6.35649C105.44 8.53642 107.823 12.4092 106.989 17.6648C109.72 20.0538 111.152 22.7447 111.454 25.6982C111.597 27.3418 111.388 28.9969 110.84 30.5533C110.292 32.1096 109.419 33.5313 108.278 34.7235L105.938 37.2299Z" fill="#2F2E41"/>
<path d="M101.082 61.804L76.8701 60.3806C79.243 54.9376 80.1908 49.6963 79.2439 44.723H97.2845C97.2436 48.5415 99.1449 55.1467 101.082 61.804Z" fill="#9F616A"/>
<path d="M71.9377 285.401L70.9446 298.969C70.8997 299.583 70.9866 300.2 71.1997 300.778C71.4127 301.355 71.747 301.881 72.1799 302.319C72.6129 302.757 73.1346 303.098 73.71 303.318C74.2855 303.538 74.9014 303.633 75.5164 303.596L82.4898 303.173C82.8129 303.154 83.1278 303.063 83.4119 302.908C83.6961 302.753 83.9426 302.538 84.134 302.277C84.3254 302.016 84.4569 301.716 84.5193 301.399C84.5816 301.081 84.5733 300.754 84.4948 300.44L80.624 284.966L71.9377 285.401Z" fill="#E6E6E6"/>
<path d="M94.5133 284.966L90.6425 300.44C90.564 300.754 90.5556 301.081 90.6179 301.399C90.6803 301.716 90.8118 302.016 91.0032 302.277C91.1946 302.538 91.4411 302.753 91.7253 302.908C92.0095 303.063 92.3243 303.154 92.6474 303.173L99.6208 303.596C100.236 303.633 100.852 303.538 101.427 303.318C102.003 303.098 102.524 302.757 102.957 302.319C103.39 301.881 103.724 301.355 103.938 300.778C104.151 300.2 104.238 299.583 104.193 298.969L103.2 285.401L94.5133 284.966Z" fill="#E6E6E6"/>
<path d="M103.65 287.284L94.2395 286.341L84.8705 186.255L81.3298 286.018L72.0844 285.687L56.5015 147.52H116.036L103.65 287.284Z" fill="#6C63FF"/>
<path d="M88.7401 50.4828C98.6704 50.4828 106.72 42.4375 106.72 32.5131C106.72 22.5888 98.6704 14.5435 88.7401 14.5435C78.8098 14.5435 70.7598 22.5888 70.7598 32.5131C70.7598 42.4375 78.8098 50.4828 88.7401 50.4828Z" fill="#9F616A"/>
<path d="M109.005 23.9288C101.707 22.6586 94.5325 22.4842 87.5578 24.0953C83.115 25.5489 77.7794 25.415 71.8457 24.2173V12.0993L103.88 12.6764L109.005 23.9288Z" fill="#2F2E41"/>
<path d="M100.706 46.9315C92.8403 50.2014 84.5925 50.0686 76.0075 46.9315C78.5056 42.6701 74.7715 39.3326 72.8545 35.0308L104.91 34.0787C102.459 37.8158 98.8417 42.231 100.706 46.9315Z" fill="white"/>
<path d="M70.6472 32.5768L70.332 32.9548L73.4849 35.5806L73.8001 35.2026L70.6472 32.5768Z" fill="white"/>
<path d="M105.491 37.886L99.9722 46.5509L100.387 46.8151L105.907 38.1501L105.491 37.886Z" fill="white"/>
<path d="M71.2219 37.8856L70.8066 38.1497L76.3244 46.8155L76.7397 46.5514L71.2219 37.8856Z" fill="white"/>
<path d="M54.5569 114.47L40.7891 105.93L52.5306 71.5616C53.8401 68.0152 56.3485 65.0376 59.6219 63.1436L63.5772 60.855L63.9211 95.5261L54.5569 114.47Z" fill="#6C63FF"/>
<path d="M114.068 131.162L112.031 113.726C111.922 104.522 113.488 95.6242 117.224 87.4254L119.123 61.804L98.2341 53.2635C98.17 53.6889 98.1156 54.1141 98.0545 54.5394L88.2643 59.4316L78.7163 57.2629L78.7692 54.2125L59.7791 62.7529C66.0591 91.9319 62.6339 122.233 51.8345 158.024L76.8522 164.861L77.0602 152.855L99.3564 151.263C99.5861 155.158 99.7706 158.984 99.8777 162.725C112.459 167.354 112.891 167.278 124.354 160.65C119.789 151.058 116.174 141.076 114.068 131.162Z" fill="#6C63FF"/>
<path d="M146.184 110.2L133.366 105.93L112.862 82.0748L119.123 61.8042L147.608 101.66L146.184 110.2Z" fill="#6C63FF"/>
<path d="M106.012 128.668C106.221 129.588 106.788 130.387 107.586 130.89C108.384 131.394 109.35 131.56 110.271 131.353L121.152 128.89L119.579 121.949L108.698 124.411C107.777 124.62 106.977 125.185 106.473 125.984C105.969 126.782 105.803 127.747 106.012 128.668Z" fill="#E6E6E6"/>
<path d="M115.8 120.638L121.972 132.026C132.352 129.132 141.349 120.01 149.982 109.251L147.608 101.659L132.891 105.455L115.8 120.638Z" fill="#6C63FF"/>
<path d="M35.3291 84.919L47.1773 87.0334L74.259 125.517L59.872 122.134L35.3291 84.919Z" fill="#E6E6E6"/>
<path d="M33.2274 84.4479C33.0469 84.4506 32.8704 84.5017 32.7164 84.596C32.5624 84.6902 32.4366 84.8241 32.3521 84.9835C32.2675 85.143 32.2275 85.3222 32.236 85.5025C32.2445 85.6828 32.3014 85.8574 32.4006 86.0082L57.7147 124.393C57.856 124.608 58.0742 124.76 58.3244 124.819L70.1024 127.588C70.3009 127.635 70.509 127.62 70.6991 127.546C70.8891 127.472 71.052 127.342 71.1663 127.173C71.2805 127.004 71.3407 126.804 71.3388 126.6C71.337 126.396 71.2731 126.198 71.1557 126.031L43.3623 86.536C43.2869 86.4284 43.1911 86.3366 43.0802 86.2661C42.9694 86.1955 42.8457 86.1475 42.7162 86.1247L33.4173 84.465C33.3546 84.4538 33.2911 84.448 33.2274 84.4479Z" fill="#3F3D56"/>
<path d="M49.0186 111.893L49.7221 118.975L60.8241 117.874C61.7638 117.781 62.628 117.318 63.2265 116.588C63.8251 115.858 64.109 114.92 64.0157 113.981C63.9224 113.042 63.4597 112.178 62.7292 111.58C61.9988 110.982 61.0605 110.698 60.1208 110.791L49.0186 111.893Z" fill="#E6E6E6"/>
<path d="M39.3647 111.072C39.3809 113.487 40.3514 115.798 42.0647 117.501C43.7781 119.204 46.0954 120.161 48.5118 120.164H50.3374L51.6664 109.095L40.6624 105.136L39.3647 111.072Z" fill="#6C63FF"/>
<path d="M104.033 35.3032L103.685 34.9555L104.211 34.4302L107.351 30.7676L107.724 31.0873L104.571 34.7637L104.033 35.3032Z" fill="white"/>
<path d="M437 303.016H0V304H437V303.016Z" fill="#3F3D56"/>
<path d="M166.828 302.525H270.172V177.249C270.172 170.615 263.634 165.218 255.599 165.218H181.401C173.365 165.218 166.828 170.615 166.828 177.249V302.525Z" fill="#E6E6E6"/>
<path d="M174.702 297.344H262.299V191.158C262.299 185.535 256.757 180.961 249.946 180.961H187.055C180.243 180.961 174.702 185.535 174.702 191.158V297.344Z" fill="white"/>
<path d="M166.047 155.469C163.493 155.469 161.415 157.184 161.415 159.293V170.331C161.415 172.44 163.493 174.155 166.047 174.155H270.953C273.508 174.155 275.586 172.44 275.586 170.331V159.293C275.586 157.184 273.508 155.469 270.953 155.469H166.047Z" fill="#3F3D56"/>
<path d="M187.585 283.728C186.386 283.732 185.237 284.209 184.389 285.057C183.541 285.904 183.063 287.053 183.06 288.251C183.063 289.45 183.541 290.598 184.389 291.446C185.237 292.293 186.386 292.771 187.585 292.775H196.057V283.728H187.585Z" fill="#3F3D56"/>
<path d="M203.832 283.728H195.593V292.775H203.832C205.031 292.771 206.18 292.293 207.028 291.446C207.876 290.598 208.354 289.45 208.358 288.251C208.354 287.053 207.876 285.904 207.028 285.057C206.18 284.209 205.031 283.732 203.832 283.728Z" fill="#6C63FF"/>
<path opacity="0.2" d="M206.785 284.836C207.499 285.654 207.893 286.702 207.894 287.788C207.89 288.986 207.412 290.134 206.564 290.982C205.716 291.829 204.567 292.307 203.368 292.311H195.593V292.775H203.832C205.031 292.771 206.18 292.293 207.028 291.446C207.876 290.598 208.354 289.45 208.358 288.251C208.357 287.603 208.216 286.962 207.944 286.372C207.673 285.783 207.278 285.259 206.785 284.836Z" fill="black"/>
<path d="M225.814 215.598C224.988 214.728 223.852 214.22 222.654 214.185C221.455 214.149 220.291 214.589 219.416 215.409C218.546 216.234 218.037 217.369 218.002 218.567C217.967 219.765 218.407 220.928 219.227 221.803L225.038 227.964L231.624 221.758L225.814 215.598Z" fill="#3F3D56"/>
<path d="M236.957 227.413L231.306 221.421L224.719 227.626L230.371 233.618C231.196 234.488 232.332 234.996 233.531 235.031C234.729 235.066 235.894 234.626 236.769 233.807C237.639 232.982 238.147 231.847 238.183 230.649C238.218 229.451 237.778 228.287 236.957 227.413Z" fill="#6C63FF"/>
<path opacity="0.2" d="M238.177 230.32C238.071 231.4 237.577 232.406 236.788 233.151C235.913 233.97 234.749 234.411 233.55 234.375C232.351 234.34 231.215 233.832 230.39 232.962L225.057 227.308L224.719 227.626L230.371 233.618C231.196 234.488 232.332 234.996 233.531 235.031C234.729 235.066 235.894 234.626 236.769 233.807C237.24 233.361 237.61 232.819 237.853 232.217C238.096 231.615 238.207 230.968 238.177 230.32Z" fill="black"/>
<path d="M201.7 229.861C200.875 228.991 199.739 228.483 198.54 228.447C197.341 228.412 196.177 228.852 195.302 229.672C194.432 230.496 193.924 231.632 193.888 232.83C193.853 234.028 194.293 235.191 195.113 236.066L200.924 242.226L207.511 236.021L201.7 229.861Z" fill="#3F3D56"/>
<path d="M212.844 241.676L207.192 235.684L200.605 241.889L206.257 247.881C207.082 248.751 208.218 249.259 209.417 249.294C210.616 249.329 211.78 248.889 212.655 248.07C213.525 247.245 214.033 246.11 214.069 244.912C214.104 243.714 213.664 242.55 212.844 241.676Z" fill="#6C63FF"/>
<path opacity="0.2" d="M214.063 244.583C213.957 245.663 213.464 246.669 212.674 247.414C211.799 248.233 210.635 248.674 209.436 248.638C208.238 248.603 207.102 248.095 206.276 247.225L200.943 241.571L200.605 241.889L206.257 247.881C207.082 248.751 208.218 249.259 209.417 249.294C210.616 249.329 211.78 248.889 212.655 248.07C213.126 247.624 213.496 247.082 213.739 246.48C213.982 245.878 214.093 245.231 214.063 244.583Z" fill="black"/>
<path d="M225.814 243.14C224.988 242.27 223.852 241.762 222.654 241.727C221.455 241.691 220.291 242.132 219.416 242.951C218.546 243.776 218.037 244.911 218.002 246.109C217.967 247.307 218.407 248.47 219.227 249.345L225.038 255.506L231.624 249.301L225.814 243.14Z" fill="#3F3D56"/>
<path d="M236.957 254.955L231.306 248.963L224.719 255.168L230.371 261.16C231.196 262.03 232.332 262.538 233.531 262.573C234.729 262.609 235.894 262.168 236.769 261.349C237.639 260.524 238.147 259.389 238.183 258.191C238.218 256.993 237.778 255.829 236.957 254.955Z" fill="#6C63FF"/>
<path opacity="0.2" d="M238.177 257.862C238.071 258.943 237.577 259.948 236.788 260.693C235.913 261.513 234.749 261.953 233.55 261.917C232.351 261.882 231.215 261.374 230.39 260.504L225.057 254.85L224.719 255.168L230.371 261.16C231.196 262.03 232.332 262.538 233.531 262.573C234.729 262.609 235.894 262.168 236.769 261.349C237.24 260.903 237.61 260.361 237.853 259.759C238.096 259.158 238.207 258.511 238.177 257.862Z" fill="black"/>
<path d="M240.524 271.404C241.384 270.568 241.879 269.427 241.9 268.229C241.921 267.03 241.466 265.872 240.635 265.008C239.8 264.148 238.658 263.654 237.459 263.633C236.26 263.612 235.101 264.067 234.236 264.897L228.143 270.779L234.431 277.285L240.524 271.404Z" fill="#3F3D56"/>
<path d="M228.838 282.684L234.765 276.963L228.476 270.456L222.55 276.177C221.69 277.012 221.195 278.154 221.175 279.352C221.154 280.55 221.608 281.708 222.439 282.573C223.275 283.432 224.417 283.927 225.616 283.947C226.815 283.968 227.973 283.514 228.838 282.684Z" fill="#6C63FF"/>
<path opacity="0.2" d="M225.944 283.937C224.862 283.845 223.85 283.364 223.095 282.584C222.265 281.72 221.81 280.562 221.831 279.363C221.852 278.165 222.346 277.024 223.206 276.188L228.799 270.79L228.476 270.456L222.55 276.177C221.69 277.012 221.195 278.154 221.175 279.352C221.154 280.55 221.608 281.708 222.439 282.573C222.891 283.039 223.438 283.402 224.043 283.637C224.647 283.873 225.296 283.975 225.944 283.937Z" fill="black"/>
<path d="M208.044 257.141C208.904 256.305 209.399 255.164 209.42 253.966C209.441 252.767 208.986 251.609 208.155 250.745C207.32 249.885 206.178 249.391 204.979 249.37C203.78 249.349 202.621 249.804 201.756 250.634L195.663 256.516L201.951 263.022L208.044 257.141Z" fill="#3F3D56"/>
<path d="M196.359 268.421L202.285 262.7L195.997 256.193L190.07 261.914C189.21 262.749 188.716 263.891 188.695 265.089C188.674 266.287 189.129 267.445 189.959 268.31C190.795 269.169 191.937 269.664 193.136 269.684C194.335 269.705 195.494 269.251 196.359 268.421Z" fill="#6C63FF"/>
<path opacity="0.2" d="M193.465 269.675C192.383 269.582 191.371 269.101 190.616 268.321C189.785 267.457 189.331 266.299 189.351 265.1C189.372 263.902 189.867 262.761 190.727 261.925L196.319 256.527L195.997 256.193L190.07 261.914C189.21 262.749 188.716 263.891 188.695 265.089C188.674 266.287 189.129 267.445 189.959 268.31C190.411 268.776 190.958 269.139 191.563 269.374C192.168 269.61 192.817 269.712 193.465 269.675Z" fill="black"/>
<path d="M254.304 239.927C255.164 239.092 255.658 237.95 255.679 236.752C255.7 235.553 255.245 234.396 254.415 233.531C253.579 232.671 252.437 232.177 251.238 232.156C250.039 232.136 248.88 232.59 248.015 233.42L241.922 239.302L248.21 245.809L254.304 239.927Z" fill="#3F3D56"/>
<path d="M242.618 251.207L248.544 245.486L242.256 238.979L236.329 244.7C235.469 245.535 234.975 246.677 234.954 247.875C234.933 249.073 235.388 250.231 236.218 251.096C237.054 251.956 238.196 252.45 239.395 252.471C240.594 252.491 241.753 252.037 242.618 251.207Z" fill="#6C63FF"/>
<path opacity="0.2" d="M239.723 252.461C238.642 252.368 237.63 251.887 236.875 251.107C236.044 250.243 235.589 249.085 235.61 247.886C235.631 246.688 236.126 245.547 236.986 244.712L242.578 239.313L242.256 238.979L236.329 244.7C235.469 245.535 234.975 246.677 234.954 247.875C234.933 249.073 235.388 250.231 236.218 251.096C236.67 251.562 237.217 251.925 237.822 252.16C238.427 252.396 239.075 252.498 239.723 252.461Z" fill="black"/>
<path d="M244.022 275.6C243.197 274.731 242.06 274.223 240.862 274.187C239.663 274.152 238.499 274.592 237.624 275.412C236.754 276.236 236.245 277.372 236.21 278.57C236.175 279.768 236.615 280.931 237.435 281.805L243.246 287.966L249.833 281.761L244.022 275.6Z" fill="#3F3D56"/>
<path d="M255.166 287.415L249.514 281.423L242.928 287.629L248.579 293.621C249.405 294.49 250.541 294.998 251.739 295.034C252.938 295.069 254.102 294.629 254.977 293.809C255.847 292.985 256.356 291.849 256.391 290.651C256.426 289.453 255.986 288.29 255.166 287.415Z" fill="#6C63FF"/>
<path opacity="0.2" d="M256.385 290.323C256.279 291.403 255.786 292.408 254.996 293.154C254.121 293.973 252.957 294.413 251.759 294.378C250.56 294.343 249.424 293.834 248.599 292.965L243.266 287.31L242.928 287.629L248.579 293.621C249.405 294.49 250.541 294.998 251.739 295.034C252.938 295.069 254.102 294.629 254.977 293.809C255.449 293.364 255.819 292.821 256.062 292.22C256.305 291.618 256.415 290.971 256.385 290.323Z" fill="black"/>
<path d="M212.034 275.108C211.209 274.239 210.073 273.731 208.874 273.695C207.676 273.66 206.512 274.1 205.637 274.92C204.766 275.744 204.258 276.88 204.223 278.078C204.187 279.276 204.628 280.439 205.448 281.314L211.259 287.474L217.845 281.269L212.034 275.108Z" fill="#3F3D56"/>
<path d="M223.178 286.924L217.527 280.932L210.94 287.137L216.592 293.129C217.417 293.998 218.553 294.506 219.751 294.542C220.95 294.577 222.114 294.137 222.989 293.318C223.86 292.493 224.368 291.358 224.403 290.159C224.439 288.961 223.998 287.798 223.178 286.924Z" fill="#6C63FF"/>
<path opacity="0.2" d="M224.397 289.831C224.291 290.911 223.798 291.917 223.009 292.662C222.134 293.481 220.97 293.921 219.771 293.886C218.572 293.851 217.436 293.343 216.611 292.473L211.278 286.819L210.94 287.137L216.592 293.129C217.417 293.998 218.553 294.506 219.751 294.542C220.95 294.577 222.114 294.137 222.989 293.318C223.461 292.872 223.831 292.329 224.074 291.728C224.317 291.126 224.427 290.479 224.397 289.831Z" fill="black"/>
<path d="M221.038 258.882C221.039 260.385 220.519 261.843 219.568 263.008C218.616 264.173 217.291 264.973 215.817 265.274C214.955 265.448 214.068 265.448 213.206 265.274C211.732 264.973 210.407 264.172 209.456 263.008C208.504 261.843 207.984 260.385 207.984 258.881C207.984 257.378 208.504 255.92 209.456 254.755C210.407 253.591 211.732 252.79 213.206 252.489C214.068 252.315 214.955 252.315 215.817 252.489C217.291 252.79 218.616 253.59 219.568 254.755C220.519 255.92 221.039 257.378 221.038 258.882Z" fill="#6C63FF"/>
<path opacity="0.2" d="M215.817 252.489V265.274C214.955 265.448 214.068 265.448 213.206 265.274V252.489C214.068 252.315 214.955 252.315 215.817 252.489Z" fill="black"/>
<path d="M223.991 232.815C223.991 234.319 223.472 235.776 222.52 236.941C221.569 238.106 220.244 238.907 218.769 239.207C217.908 239.381 217.02 239.381 216.159 239.207C214.684 238.906 213.36 238.106 212.408 236.941C211.457 235.776 210.937 234.318 210.937 232.815C210.937 231.311 211.457 229.853 212.408 228.689C213.36 227.524 214.684 226.723 216.159 226.422C217.02 226.248 217.908 226.248 218.769 226.422C220.244 226.723 221.569 227.523 222.52 228.688C223.472 229.853 223.991 231.311 223.991 232.815Z" fill="#6C63FF"/>
<path opacity="0.2" d="M218.769 226.422V239.207C217.908 239.381 217.02 239.381 216.159 239.207V226.422C217.02 226.248 217.908 226.248 218.769 226.422Z" fill="black"/>
<path d="M223.991 270.194C223.991 271.697 223.472 273.155 222.52 274.32C221.569 275.485 220.244 276.285 218.769 276.586C217.908 276.76 217.02 276.76 216.159 276.586C214.684 276.285 213.36 275.484 212.408 274.32C211.457 273.155 210.937 271.697 210.937 270.193C210.937 268.69 211.457 267.232 212.408 266.067C213.36 264.902 214.684 264.102 216.159 263.801C217.02 263.627 217.908 263.627 218.769 263.801C220.244 264.102 221.569 264.902 222.52 266.067C223.472 267.232 223.991 268.69 223.991 270.194Z" fill="#6C63FF"/>
<path opacity="0.2" d="M218.769 263.801V276.586C217.908 276.76 217.02 276.76 216.159 276.586V263.801C217.02 263.627 217.908 263.627 218.769 263.801Z" fill="black"/>
<path d="M240.231 288.391C240.231 289.895 239.712 291.353 238.76 292.517C237.808 293.682 236.483 294.483 235.009 294.784C234.148 294.958 233.26 294.958 232.398 294.784C230.924 294.483 229.599 293.682 228.648 292.517C227.696 291.352 227.177 289.895 227.177 288.391C227.177 286.887 227.696 285.43 228.648 284.265C229.599 283.1 230.924 282.299 232.398 281.998C233.26 281.824 234.148 281.824 235.009 281.998C236.483 282.299 237.808 283.1 238.76 284.265C239.712 285.43 240.231 286.887 240.231 288.391Z" fill="#6C63FF"/>
<path opacity="0.2" d="M235.009 281.998V294.784C234.148 294.958 233.26 294.958 232.398 294.784V281.998C233.26 281.824 234.148 281.824 235.009 281.998Z" fill="black"/>
<path d="M254.577 254.91C255.66 255.953 256.35 257.339 256.529 258.832C256.708 260.325 256.365 261.834 255.558 263.103C255.086 263.844 254.47 264.483 253.747 264.982C252.507 265.834 251.011 266.232 249.511 266.108C248.012 265.984 246.601 265.347 245.517 264.303C244.434 263.259 243.745 261.874 243.566 260.381C243.387 258.888 243.73 257.379 244.536 256.109C245.008 255.369 245.624 254.73 246.348 254.231C247.587 253.379 249.084 252.981 250.583 253.104C252.083 253.228 253.494 253.866 254.577 254.91Z" fill="#6C63FF"/>
<path opacity="0.2" d="M246.348 254.231L255.559 263.103C255.086 263.844 254.47 264.483 253.747 264.982L244.536 256.109C245.009 255.369 245.625 254.73 246.348 254.231Z" fill="black"/>
<path d="M256.545 269.173C257.629 270.216 258.319 271.601 258.498 273.095C258.676 274.588 258.334 276.097 257.527 277.366C257.055 278.107 256.439 278.746 255.715 279.245C254.476 280.097 252.979 280.494 251.48 280.371C249.98 280.247 248.57 279.609 247.486 278.566C246.403 277.522 245.714 276.137 245.535 274.644C245.356 273.151 245.698 271.642 246.504 270.372C246.977 269.632 247.593 268.993 248.316 268.494C249.556 267.641 251.052 267.244 252.552 267.367C254.052 267.491 255.462 268.129 256.545 269.173Z" fill="#6C63FF"/>
<path opacity="0.2" d="M248.316 268.494L257.527 277.366C257.055 278.107 256.439 278.746 255.715 279.245L246.504 270.372C246.977 269.632 247.593 268.993 248.316 268.494Z" fill="black"/>
<path d="M197.983 272.615C199.067 273.659 199.757 275.044 199.936 276.537C200.114 278.03 199.772 279.539 198.965 280.809C198.493 281.55 197.877 282.189 197.153 282.688C195.913 283.54 194.417 283.937 192.918 283.814C191.418 283.69 190.008 283.052 188.924 282.009C187.841 280.965 187.151 279.58 186.973 278.087C186.794 276.594 187.136 275.085 187.942 273.815C188.415 273.074 189.031 272.436 189.754 271.936C190.994 271.084 192.49 270.686 193.99 270.81C195.49 270.934 196.9 271.572 197.983 272.615Z" fill="#6C63FF"/>
<path opacity="0.2" d="M189.754 271.936L198.965 280.809C198.493 281.55 197.877 282.189 197.153 282.688L187.942 273.815C188.415 273.074 189.031 272.436 189.754 271.936Z" fill="black"/>
<path opacity="0.2" d="M176.916 155.469H174.456V173.666H176.916V155.469Z" fill="black"/>
<path opacity="0.2" d="M191.188 155.469H188.727V173.666H191.188V155.469Z" fill="black"/>
<path opacity="0.2" d="M205.459 155.469H202.999V173.666H205.459V155.469Z" fill="black"/>
<path opacity="0.2" d="M219.73 155.469H217.27V173.666H219.73V155.469Z" fill="black"/>
<path opacity="0.2" d="M234.002 155.469H231.541V173.666H234.002V155.469Z" fill="black"/>
<path opacity="0.2" d="M248.273 155.469H245.812V173.666H248.273V155.469Z" fill="black"/>
<path opacity="0.2" d="M262.545 155.469H260.084V173.666H262.545V155.469Z" fill="black"/>
</g>
<defs>
<clipPath id="clip0_442_1271">
<rect width="437" height="304" fill="white"/>
</clipPath>
</defs>
</svg>
